<?xml version="1.0" encoding="utf-8"?>
<!-- Generator: Adobe Illustrator 23.0.5, SVG Export Plug-In . SVG Version: 6.00 Build 0)  -->
<svg version="1.1" xmlns="http://www.w3.org/2000/svg" xmlns:xlink="http://www.w3.org/1999/xlink" x="0px" y="0px"
	 viewBox="0 0 750 500" style="enable-background:new 0 0 750 500;" xml:space="preserve">
<style type="text/css">
	.st0{display:none;}
	.st1{display:inline;fill:url(#XMLID_35_);}
	.st2{display:none;opacity:0.3;}
	.st3{display:inline;filter:url(#Adobe_OpacityMaskFilter);}
	.st4{display:inline;mask:url(#SVGID_1_);}
	.st5{fill:#9E9EE5;}
	.st6{display:none;fill:#FFFFFF;}
	.st7{display:none;fill:url(#XMLID_36_);}
	.st8{display:inline;fill:#FFFFFF;}
	.st9{font-family:'SourceSansPro-Bold';}
	.st10{font-size:12.6px;}
	.st11{font-family:'SourceSansPro-Semibold';}
	.st12{font-size:10.5px;}
	.st13{font-family:'SourceSansPro-Light';}
	.st14{display:inline;fill:#778FF9;}
	.st15{display:inline;}
	.st16{fill:#032575;}
	.st17{font-family:'Amaranth-Bold';}
	.st18{font-size:38.0537px;}
	.st19{fill:#042776;}
	.st20{font-family:'Amaranth-Regular';}
	.st21{font-size:14.7px;}
	.st22{font-size:9.45px;}
	.st23{fill:none;}
	.st24{fill:#778FF9;}
	.st25{font-size:7.35px;}
	.st26{fill:#FFC253;}
	.st27{fill:#E09736;}
	.st28{fill:#FFC854;}
	.st29{fill:#40C7A7;}
	.st30{fill:none;stroke:#3B55CE;stroke-width:1.05;stroke-linecap:round;stroke-miterlimit:10;}
	.st31{fill:#3B55CE;}
	.st32{fill:#262626;}
	.st33{clip-path:url(#SVGID_15_);fill:none;stroke:#262626;stroke-miterlimit:10;}
	.st34{fill:#FF9A8D;}
	.st35{fill:#141414;}
	.st36{clip-path:url(#SVGID_17_);fill:none;stroke:#262626;stroke-miterlimit:10;}
	.st37{fill:#0F0F0F;}
	.st38{clip-path:url(#SVGID_19_);fill:none;stroke:#F2F2F2;stroke-miterlimit:10;}
	.st39{fill:#070707;}
	.st40{fill:#010A77;}
	.st41{fill:#031593;}
	.st42{fill:#BA5964;}
	.st43{fill:#1E4174;}
	.st44{fill:none;stroke:#070707;stroke-width:0.7875;stroke-linecap:round;stroke-miterlimit:10;}
	.st45{fill:#DD7A79;}
	.st46{fill:#2339A0;}
	.st47{fill:#91DBAC;}
	.st48{fill:#22A482;}
	.st49{fill:#3DC19A;}
	.st50{fill:#638BE2;}
	.st51{fill:#E5F7FF;}
	.st52{fill:#444444;}
	.st53{clip-path:url(#SVGID_21_);}
	.st54{fill:none;stroke:#8FC9C6;stroke-width:0.525;stroke-linecap:round;stroke-miterlimit:10;}
	.st55{clip-path:url(#SVGID_23_);}
	.st56{fill:none;stroke:#AAEEED;stroke-width:0.525;stroke-linecap:round;stroke-miterlimit:10;}
	.st57{fill:#85B8ED;}
	.st58{fill:#4E7EAC;}
	.st59{clip-path:url(#SVGID_25_);fill:none;stroke:#274D79;stroke-width:0.525;stroke-miterlimit:10;}
	.st60{fill:#D18102;}
	.st61{fill:#232323;}
	.st62{fill:none;stroke:#232323;stroke-width:0.7875;stroke-linecap:round;stroke-miterlimit:10;}
	.st63{fill:#1D262D;}
</style>
<g id="Background" class="st0">
	<linearGradient id="XMLID_35_" gradientUnits="userSpaceOnUse" x1="375" y1="-4.641" x2="375" y2="497.574">
		<stop  offset="0" style="stop-color:#FFFDFE"/>
		<stop  offset="1" style="stop-color:#F1F5FF"/>
	</linearGradient>
	<rect id="XMLID_3419_" class="st1" width="750" height="500"/>
</g>
<g id="Objects">
	<g id="XMLID_3418_" class="st2">
		<defs>
			<filter id="Adobe_OpacityMaskFilter" filterUnits="userSpaceOnUse" x="71" y="92.1" width="608" height="353.5">
				<feFlood  style="flood-color:white;flood-opacity:1" result="back"/>
				<feBlend  in="SourceGraphic" in2="back" mode="normal"/>
			</filter>
		</defs>
		<mask maskUnits="userSpaceOnUse" x="71" y="92.1" width="608" height="353.5" id="SVGID_1_" class="st15">
			<g style="filter:url(#Adobe_OpacityMaskFilter);">
				<image style="overflow:visible;" width="614" height="358" xlink:href="B81C4CF5.jpg"  transform="matrix(1 0 0 1 68 90)">
				</image>
			</g>
		</mask>
		<g class="st4">
			<rect x="71" y="92.1" class="st5" width="608" height="353.5"/>
		</g>
	</g>
	<g id="XMLID_2059_">
		
			<image style="overflow:visible;opacity:0.5;" width="463" height="277" xlink:href="B81C4CFB.png"  transform="matrix(1 0 0 1 192.25 136.25)">
		</image>
		<g>
			<g>
				<g id="XMLID_1635_">
					<g id="XMLID_1660_">
						<g id="XMLID_1704_">
							<g id="XMLID_1706_">
								<defs>
									<path id="SVGID_2_" d="M482.7,265.4c-0.1,1.5,0.3,5.2-0.4,6.7c-1.8,0.9-4.9,0.2-7.1-0.9c-2.2-1.2-4.2-0.4-7.2-0.9
										c-2.9-0.5-5.2-1.9-5.5-3.3c-0.3-1.5,5-1.3,8.7-1.5c4.2-0.3,6.6-1.7,6.6-1.7L482.7,265.4z"/>
								</defs>
								<clipPath id="SVGID_3_">
									<use xlink:href="#SVGID_2_"  style="overflow:visible;"/>
								</clipPath>
							</g>
						</g>
						<g id="XMLID_1695_">
							<g id="XMLID_1697_">
								<defs>
									<path id="SVGID_4_" d="M496.5,264.1c1,1.1,3.8,3.5,4.4,5.1c-0.6,1.9-3.4,3.6-5.8,4.3c-2.4,0.7-3.2,2.7-5.7,4.4
										c-2.5,1.7-5,2.2-6.2,1.5c-1.3-0.8,2.7-4.4,5.2-7.2c2.8-3.1,3.5-5.8,3.5-5.8L496.5,264.1z"/>
								</defs>
								<clipPath id="SVGID_5_">
									<use xlink:href="#SVGID_4_"  style="overflow:visible;"/>
								</clipPath>
							</g>
						</g>
						<g id="XMLID_1688_">
							<defs>
								<path id="SVGID_6_" d="M525.7,211.4c0.7,1.8,2.3,4,3.3,5.7c1,1.7,4,6.2,2.3,10.9c-1.9,5.1-6.1,6.3-10.5,6.3s-7.2,0-10.1,0
									c-3,0-21.3-4.5-21.3-4.5s2.1,1.2,3.1,4.5c1,3.3,3.1,25.3,3.1,25.3c-1.3,1.4-3.2,1.9-5.6,1.7c0,0-5.5-17-7.8-23.3
									c-2.3-6.5-5-13-4.5-15.8c0.7-4,7.6-4.1,13.3-3.9c5.7,0.2,18.8,0.7,21.5,0.3l-1.4-4.8L525.7,211.4z"/>
							</defs>
							<clipPath id="SVGID_7_">
								<use xlink:href="#SVGID_6_"  style="overflow:visible;"/>
							</clipPath>
						</g>
					</g>
				</g>
				<g id="XMLID_1584_">
					<g id="XMLID_1608_">
						<g id="XMLID_1626_">
							<g id="XMLID_1628_">
								<defs>
									<path id="SVGID_8_" d="M304.9,346.2c-0.3,1.4-1.4,4.7-1.1,6.3c1.4,1.2,4.5,1.3,6.8,0.7c2.3-0.6,3.9,0.6,6.8,0.8
										c2.8,0.2,5.2-0.6,5.8-1.8c0.6-1.3-4.3-2.3-7.7-3.3c-3.8-1.2-5.7-3-5.7-3L304.9,346.2z"/>
								</defs>
								<clipPath id="SVGID_9_">
									<use xlink:href="#SVGID_8_"  style="overflow:visible;"/>
								</clipPath>
							</g>
						</g>
						<g id="XMLID_1618_">
							<g id="XMLID_1620_">
								<defs>
									<path id="SVGID_10_" d="M260.6,334.3c-1.4,0.1-4.9-0.1-6.4,0.6c-0.8,1.7-0.1,4.7,1.1,6.8s0.5,4,1.1,6.8
										c0.6,2.8,2,4.9,3.3,5.1c1.4,0.3,1.1-4.8,1.2-8.3c0.1-4,1.4-6.3,1.4-6.3L260.6,334.3z"/>
								</defs>
								<clipPath id="SVGID_11_">
									<use xlink:href="#SVGID_10_"  style="overflow:visible;"/>
								</clipPath>
							</g>
						</g>
						<g id="XMLID_1609_">
							<defs>
								<path id="SVGID_12_" d="M267.3,336.3c0,0,25.7-13.9,27.4-15.2c1.7-1.3,12-36.7,12.8-39c0,0,7.6-6.2,8.7-11.1l-17.6-11.5
									c-1.3,2.9-1.3,4.8-4.9,12c-3.4,6.9-4.7,26.3-7.9,42.8c0,0-1.9,0.4-5.3,2.1c-3.1,1.5-16.2,15.4-16.2,15.4
									S264.6,334.8,267.3,336.3z"/>
							</defs>
							<clipPath id="SVGID_13_">
								<use xlink:href="#SVGID_12_"  style="overflow:visible;"/>
							</clipPath>
						</g>
					</g>
				</g>
			</g>
			<g>
				<rect id="XMLID_1583_" x="71" y="66.3" class="st6" width="608" height="353.5"/>
				<linearGradient id="XMLID_36_" gradientUnits="userSpaceOnUse" x1="375.0001" y1="65.3951" x2="375.0001" y2="353.9926">
					<stop  offset="0" style="stop-color:#638BE3"/>
					<stop  offset="9.573331e-02" style="stop-color:#719AE3;stop-opacity:0.8984"/>
					<stop  offset="0.3877" style="stop-color:#99C4E5;stop-opacity:0.5884"/>
					<stop  offset="0.617" style="stop-color:#B1DEE6;stop-opacity:0.3451"/>
					<stop  offset="0.7537" style="stop-color:#BAE8E6;stop-opacity:0.2"/>
				</linearGradient>
				<polygon id="XMLID_1582_" class="st7" points="71,66.3 359.6,354.9 679,354.9 679,66.3 				"/>
				<g id="XMLID_1567_" class="st0">
					<text id="XMLID_1581_" transform="matrix(1 0 0 1 109.4971 98.4043)" class="st8 st9 st10">YOUR</text>
					<text id="XMLID_1580_" transform="matrix(1 0 0 1 452.6006 99.5254)" class="st8 st11 st12">HOME</text>
					<text id="XMLID_1579_" transform="matrix(1 0 0 1 517.5 99.5254)" class="st8 st11 st12">ABOUT US</text>
					<text id="XMLID_1577_" transform="matrix(1 0 0 1 141.6738 98.4043)" class="st8 st13 st10">logo</text>
					<path id="XMLID_1576_" class="st8" d="M448.6,94.6l-6.7-4.9l-6.7,4.9h1.5v5h3.8v-2.2c0-0.7,0.6-1.4,1.4-1.4
						c0.7,0,1.4,0.6,1.4,1.4v2.2h3.8v-5H448.6z"/>
					<text id="XMLID_1575_" transform="matrix(1 0 0 1 600.5684 99.5254)" class="st8 st11 st12">CONTACT US</text>
					<path id="XMLID_1574_" class="st14" d="M171.3,355.9h-60.4c-5.4,0-9.8-4.4-9.8-9.8l0,0c0-5.4,4.4-9.8,9.8-9.8h60.4
						c5.4,0,9.8,4.4,9.8,9.8l0,0C181.1,351.5,176.7,355.9,171.3,355.9z"/>
					<g id="XMLID_1573_" class="st15">
						<text transform="matrix(1 0 0 1 101.0972 182.5527)"><tspan x="0" y="0" class="st16 st17 st18">CONTACT</tspan><tspan x="0" y="37.8" class="st16 st17 st18">US</tspan></text>
					</g>
					<g id="XMLID_1572_" class="st15">
						<text transform="matrix(1 0 0 1 101.0972 254.9883)" class="st19 st20 st21">LOREM IPSUM DOLOR</text>
					</g>
					<text id="XMLID_1571_" transform="matrix(1 0 0 1 117.2842 348.8896)" class="st8 st17 st22">READ MORE</text>
					<g id="XMLID_1569_" class="st15">
						<rect id="XMLID_1570_" x="101.1" y="275.3" class="st23" width="143.2" height="46.1"/>
						<text transform="matrix(1 0 0 1 101.0968 280.5859)"><tspan x="0" y="0" class="st24 st13 st25">Lorem ipsum dolor sit amet consectetur </tspan><tspan x="0" y="11.6" class="st24 st13 st25">adipiscing elit penatibus auctor, vulputate </tspan><tspan x="0" y="23.1" class="st24 st13 st25">morbi luctus vivamus eleifend eu nibh senectus </tspan><tspan x="0" y="34.7" class="st24 st13 st25">gravida, class massa.</tspan></text>
					</g>
				</g>
				<g id="XMLID_1476_">
					<g id="XMLID_1560_">
						<g id="XMLID_1565_">
							<rect x="430.2" y="234.3" class="st26" width="179.1" height="121.2"/>
						</g>
						<g id="XMLID_1564_">
							<path class="st27" d="M430.2,234.3l84.1,76.7c3.1,2.8,7.9,2.8,11,0l84.1-76.7H430.2z"/>
						</g>
						<g id="XMLID_1563_">
							<polygon class="st27" points="609.3,355.4 519.8,262 609.3,347.5 							"/>
						</g>
						<g id="XMLID_1562_">
							<polygon class="st27" points="430.2,355.4 519.8,262 430.2,347.5 							"/>
						</g>
						<g id="XMLID_1561_">
							<path class="st28" d="M430.2,234.3l82.8,69.9c3.9,3.3,9.6,3.3,13.6,0l82.8-69.9H430.2z"/>
						</g>
					</g>
					<g id="XMLID_1557_">
						<path id="XMLID_1559_" class="st29" d="M595,355.4c0,0-5.7-2.6-5.3-8.6c0.4-6.1,4.6-7.3,8.2-9.5c3.6-2.2,3.9-5.9,4-10.5
							c0.1-4.6,3.2-9.1,9.3-8.8c6.1,0.3,8.3,1.5,12.7-3.7s10.4-5.1,12.8-2.2c2.5,2.9,2.7,7.9-1.1,11.3c-4.6,4.2-5.8,5.2-7.1,9.9
							c-1.8,6.3,0.8,12.3-1.5,15.3c-3.1,3.9-6.4,2.9-9.6,4.2c-3.2,1.3-3.3,2.8-3.3,2.8H595z"/>
						<path id="XMLID_1558_" class="st30" d="M631.3,316c-9.3,5.4-25.5,21.9-28.2,39.4"/>
					</g>
					<g id="XMLID_1501_">
						<path id="XMLID_1556_" class="st31" d="M489.9,176.4c0-1.5,1.2-2.8,2.8-2.8s2.8,1.2,2.8,2.8c0,1.5-1.2,2.8-2.8,2.8
							S489.9,177.9,489.9,176.4z"/>
						<g id="XMLID_1547_">
							<g id="XMLID_1555_">
								<path class="st32" d="M462.5,267c-0.4,0.4-0.4,1.5,1.3,2.8c1.8,1.3,5.4,1.8,6.9,1.9c1.5,0.1,2.4-0.1,4.4,0.8
									c2,0.9,5.5,1.6,6.7,0.9c0.5-0.3,0.4-1.2,0.4-1.2L462.5,267z"/>
							</g>
							<g id="XMLID_1549_">
								<defs>
									<path id="SVGID_14_" d="M482.7,265.4c-0.1,1.5,0.3,5.2-0.4,6.7c-1.8,0.9-4.9,0.2-7.1-0.9c-2.2-1.2-4.2-0.4-7.2-0.9
										c-2.9-0.5-5.2-1.9-5.5-3.3c-0.3-1.5,5-1.3,8.7-1.5c4.2-0.3,6.6-1.7,6.6-1.7L482.7,265.4z"/>
								</defs>
								<use xlink:href="#SVGID_14_"  style="overflow:visible;fill:#0908A9;"/>
								<clipPath id="SVGID_15_">
									<use xlink:href="#SVGID_14_"  style="overflow:visible;"/>
								</clipPath>
								<path id="XMLID_1554_" class="st33" d="M475.9,266.6c0,0-0.2-2.1-1-3"/>
								<path id="XMLID_1553_" class="st33" d="M473,267.1c0,0-0.2-2.1-1-3"/>
								<path id="XMLID_1551_" class="st33" d="M470.1,267.5c0,0-0.2-2.1-1-3"/>
							</g>
							<g id="XMLID_1548_">
								<path class="st34" d="M484.3,260.1l-1.6,5.2c0,0-0.7,0.1-1.1,0.3c-0.4,0.3-1,1.2-1.5,1.2c-1.9-0.4-2.4-3.1-2.4-3.1l1.3-5.5
									L484.3,260.1z"/>
							</g>
						</g>
						<g id="XMLID_1546_">
							<path class="st35" d="M511.2,213.7l-0.7,5.5l-19.3-0.4c0,0-4.5-0.1-5.9,4.5c-1.3,4.6-6.4,35.6-6.4,35.6s2.7,2,5.5,1.6
								c0,0,9.1-18.8,10.4-24c1.3-5.2,0.6-9.5,0.6-9.5l23.2-2L511.2,213.7z"/>
						</g>
						<g id="XMLID_1538_">
							<g id="XMLID_1545_">
								<path class="st32" d="M483.2,279.4c0,0.6,0.7,1.3,2.9,1s5.1-2.5,6.2-3.5c1.1-1,1.6-1.8,3.7-2.5c2.1-0.7,5-2.7,5.5-4
									c0.1-0.6-0.6-1.2-0.6-1.2L483.2,279.4z"/>
							</g>
							<g id="XMLID_1540_">
								<defs>
									<path id="SVGID_16_" d="M496.5,264.1c1,1.1,3.8,3.5,4.4,5.1c-0.6,1.9-3.4,3.6-5.8,4.3c-2.4,0.7-3.2,2.7-5.7,4.4
										c-2.5,1.7-5,2.2-6.2,1.5c-1.3-0.8,2.7-4.4,5.2-7.2c2.8-3.1,3.5-5.8,3.5-5.8L496.5,264.1z"/>
								</defs>
								<use xlink:href="#SVGID_16_"  style="overflow:visible;fill:#0908A9;"/>
								<clipPath id="SVGID_17_">
									<use xlink:href="#SVGID_16_"  style="overflow:visible;"/>
								</clipPath>
								<path id="XMLID_1544_" class="st36" d="M492.5,269.8c0,0-1.6-1.4-2.8-1.4"/>
								<path id="XMLID_1543_" class="st36" d="M490.8,272.1c0,0-1.6-1.4-2.8-1.4"/>
								<path id="XMLID_1542_" class="st36" d="M489,274.5c0,0-1.6-1.4-2.8-1.4"/>
							</g>
							<g id="XMLID_1539_">
								<path class="st34" d="M495.7,259.5l0.8,4.6c0,0-0.5,0.5-0.5,1c-0.1,0.4,0.2,1.6-0.2,1.8c-1.6,1-3.8-0.5-3.8-0.5l-1.9-5.7
									L495.7,259.5z"/>
							</g>
						</g>
						<g id="XMLID_1537_">
							<path class="st37" d="M525.7,211.4c0.7,1.8,2.3,4,3.3,5.7c1,1.7,4,6.2,2.3,10.9c-1.9,5.1-6.1,6.3-10.5,6.3s-7.2,0-10.1,0
								c-3,0-21.3-4.5-21.3-4.5s2.1,1.2,3.1,4.5c1,3.3,3.1,25.3,3.1,25.3c-1.3,1.4-3.2,1.9-5.6,1.7c0,0-5.5-17-7.8-23.3
								c-2.4-6.6-5-13-4.5-15.8c0.7-4,7.6-4.1,13.3-3.9c5.7,0.2,18.8,0.7,21.5,0.3l-1.4-4.8L525.7,211.4z"/>
						</g>
						<g id="XMLID_1536_">
							<path class="st35" d="M531.3,228c1.8-4.7-1.3-9.2-2.3-10.9c-1-1.7-2.6-3.8-3.3-5.7l-14.5,2.3l0.9,3.1c0,0,8,1.1,11.5-3.1
								c0,0,2.6,3.9,3.3,6.2c1,3.2,0.7,8.5-5.6,9.7c-6.3,1.3-29.6-2.2-32.7-2.5c-3.1-0.3-2.1,1.4-0.3,5.1c1.7,3.6,2.4,10.1,4,17.9
								c1,5,2.1,10.4,2.1,10.4c0.5-0.3,0.9-0.6,1.2-0.9c0,0-2.1-22-3.1-25.3c-1-3.3-3.1-4.5-3.1-4.5s18.3,4.5,21.3,4.5
								c3,0,5.8,0,10.1,0C525.2,234.3,529.4,233,531.3,228z"/>
						</g>
						<g id="XMLID_1529_">
							<defs>
								<path id="SVGID_18_" d="M525.7,211.4c0.7,1.8,2.3,4,3.3,5.7c1,1.7,4,6.2,2.3,10.9c-1.9,5.1-6.1,6.3-10.5,6.3s-7.2,0-10.1,0
									c-3,0-21.3-4.5-21.3-4.5s2.1,1.2,3.1,4.5c1,3.3,3.1,25.3,3.1,25.3c-1.3,1.4-3.2,1.9-5.6,1.7c0,0-5.5-17-7.8-23.3
									c-2.3-6.5-5-13-4.5-15.8c0.7-4,7.6-4.1,13.3-3.9c5.7,0.2,18.8,0.7,21.5,0.3l-1.4-4.8L525.7,211.4z"/>
							</defs>
							<clipPath id="SVGID_19_">
								<use xlink:href="#SVGID_18_"  style="overflow:visible;"/>
							</clipPath>
							<path id="XMLID_1533_" class="st38" d="M520.3,211.4c0.7,4.3,2.5,6.4,2.3,10.4c-0.2,3.9-3.4,5.9-12.6,5.1
								c-9.3-0.8-23.5-2.9-24.8-2.6c-1.2,0.3-0.8,2.2,0.8,7.9c1.7,5.6,7.3,30.6,7.3,30.6"/>
							<path id="XMLID_1532_" class="st38" d="M522.5,222.8c0,0-2,0.5-3.7-1c-1.7-1.5-2.1-8.1-2.1-8.1"/>
							<path id="XMLID_1531_" class="st38" d="M488.8,259.2c0,0,4.1,0.9,7.3-2.2"/>
						</g>
						<g id="XMLID_1528_">
							<path class="st39" d="M519.6,158.7c0,0-2.9-2.5-8.3-1.9c-4.3,0.4-7.5,2.9-8.5,6.1c-1,3.2-0.7,8.9,4.5,12.2
								c0,0-1.6,0.9,0.2,2.6c0,0-2.8,0.7-3.7,2.2c-0.9,1.6,0,3,0.5,4.8c0.5,1.8,0.7,2-1.6,4.4c-2.3,2.3-4.4,6.5-1.1,11.8
								c3.3,5.3,9.1,9.8,17.1,9.4c8.1-0.4,17.2-3.1,19.5-15.6c2.3-12.5-5.6-15.3-7.7-14.7c0,0,2.4-5.3,1.7-12.2
								c-0.7-6.9-4.1-9.9-6.9-10.2C521.1,157.2,519.6,158.7,519.6,158.7z"/>
						</g>
						<g id="XMLID_1527_">
							<path class="st34" d="M517.9,183.3c-1.1,0.3-2.9,0.6-3.8,1.3c-0.9,0.7-10.3,15.3-10.3,15.3s-8.6-13.5-9.9-15.1
								c-1.3-1.7-7.9-3.8-9.1-3.5c-1.5,0.3-0.7,2.1-0.4,3.3c0.2,0.7,0.4,2.6,1.7,3.4c1.2,0.8,5.5,1.5,5.5,1.5s7.8,16.3,9.4,18.8
								c1,1.6,2.2,1.6,4.1-0.5c1.9-2,9.3-11.8,9.3-11.8L517.9,183.3z"/>
						</g>
						<g id="XMLID_1525_">
							<path class="st40" d="M517.9,183.3c-1.7,0.6-3.3,0.6-4.1,1.7c-0.9,1.1-1.6,6.1-1.6,6.1s4.3-0.9,5.4-3.1
								c1.1-2.2,1.2-4.3,1.2-4.3L517.9,183.3z"/>
						</g>
						<path id="XMLID_1524_" class="st41" d="M523.8,180.5c0,0,0.7,0.5,1.4,0.5c1,0.1,4.1,0.8,4.7,2c1.5,2.1,0,8.9-0.9,13.7
							c-0.5,2.9-5.7,9.5-2.2,16.2c0,0-8,4.7-16.1,0.7c-0.8-4,0.1-6.8,0.2-11.3c-1.1-1.2-2.3-3.5-2.4-5c-0.4-5.5,5.1-7.2,9.4-13.3
							c1.2-1.7,2.1-1.6,3.7-2.9C522.8,180.5,523.8,180.5,523.8,180.5z"/>
						<g id="XMLID_1523_">
							<path class="st34" d="M526.3,182.9c2.4-1.5,4.4,0.4,5.5,3.1c1.1,2.7,7.2,19.8,7.7,21.9c0.5,2.1-1.8,23.1-2.4,24.3
								c-0.6,1.2-1.3,2.1-3.7,2.1c-2.4,0-11.1,0-11.1,0s0.5-1.1,2.5-1.6c1.9-0.5,7.3-0.6,8.4-2.3c1.1-1.7,0.6-21.2,0.6-21.2
								s-6.7-14.3-8.2-17.9C524,187.7,524.6,184,526.3,182.9z"/>
						</g>
						<g id="XMLID_1522_">
							<path class="st40" d="M527.4,182c-1.4,0-4.7,3.3-1.9,9.3c0,0,3.6-5.1,6.9-3.8C532.4,187.4,530.9,181.2,527.4,182z"/>
						</g>
						<g id="XMLID_1509_">
							<g id="XMLID_1521_">
								<path class="st34" d="M521,175l2.5,2.2l1.1,3.8c0,0-1.6,1.1-2.2,2c-0.7,1.1-2.4,3.8-4.4,4c0,0,0.2-2.4-0.1-3.7
									c-0.3-1.3-1.2-3.9-1.2-3.9L521,175z"/>
							</g>
							<g id="XMLID_1519_">
								<path class="st42" d="M521,175c0,0,0.5,2.1,0.5,3.2c-0.1,1.1-1,3.3-3.5,5.1c-0.3-1.3-1.2-3.9-1.2-3.9L521,175z"/>
							</g>
							<g id="XMLID_1518_">
								<path class="st42" d="M510.3,170.3c-0.5,1.7-2.4,4.1-2,4.5c0.4,0.4,2,0.3,2,0.3s1.2-1.2,0.8-2.8
									C510.7,170.6,510.3,170.3,510.3,170.3z"/>
							</g>
							<g id="XMLID_1517_">
								<path class="st34" d="M514.6,159.7c-2.3,0.2-4.7,3.5-4.7,6.4c0,3,0.7,4.6,0.5,6.7c-0.2,2.1-0.2,4.1,0.7,6.3
									c0.6,1.5,2.1,1.8,4.1,1.3c1.9-0.4,4.4-2.2,5-2.8c0.6-0.6,0.7-2.5,0.7-2.5s2.8-0.4,4-2.9C526.3,169.6,526,158.6,514.6,159.7z
									"/>
							</g>
							<g id="XMLID_1516_">
								<path class="st39" d="M521,175c0,0,2.5-1,2.3-3.8c-0.2-2.9-4.1-3-4-0.4c0,0-2.7-0.5-4.4-2.5c-3.1-3.6-3.5-6.6-3.5-6.6
									c0.7-4.5,8.1-2.9,8.1-2.9s3.8-1.6,7,0.5c2.3,1.5,3.5,7,1.6,11.6c-1.9,4.6-4.7,6.4-4.7,6.4L521,175z"/>
							</g>
							<g id="XMLID_1510_">
								<g id="XMLID_1513_">
									<path id="XMLID_1515_" class="st39" d="M512.4,171c0-0.4,0.3-0.7,0.7-0.6s0.7,0.3,0.6,0.7c0,0.4-0.3,0.7-0.7,0.6
										C512.6,171.7,512.4,171.4,512.4,171z"/>
									<path id="XMLID_1514_" class="st39" d="M511.8,169.2l3.1,1c0,0-0.1-1.1-1.1-1.4C512.5,168.4,511.8,169.2,511.8,169.2z"/>
								</g>
								<g id="XMLID_1512_">
									<path class="st42" d="M521.7,170.6c-0.4-0.2-1.1-0.1-1.4,0.2c-0.1,0.1,0.1,0.3,0.2,0.3c0.7-0.3,1.6-0.3,1.9,0.5
										c0,0,0.1,0,0,0C522.4,171.1,522.1,170.8,521.7,170.6z"/>
								</g>
								<g id="XMLID_1511_">
									<path class="st42" d="M521.3,170.7c-0.1,0-0.3,0.2-0.2,0.2c0.1,0.1,0.3,0.2,0.4,0.3c0.2,0.3,0.2,0.5,0.2,0.8
										c-0.1,0.7-0.5,1.2-1.2,1.4c0,0,0,0,0,0c0.6,0.2,1.3-0.5,1.4-1C522.1,171.9,522,171,521.3,170.7z"/>
								</g>
							</g>
						</g>
						<g id="XMLID_1508_">
							<path class="st34" d="M518,184.2c0,0.8-1.5,2.6-1.1,3.8c0.4,1.2,2.9,1.4,4.3,0c1.4-1.4,2.2-5.8,4.1-7c0,0-0.6,0-0.9-0.8
								L518,184.2z"/>
						</g>
						<g id="XMLID_1507_">
							<path class="st43" d="M490.4,180c0,0-0.8,6.7,1.8,12c0.3,0.5,0,1.2-0.5,1.4l-3.1,1.7c-0.7,0.4-1.5,0-1.7-0.8
								c-0.5-2.6-1.2-8.3,0.6-14.7L490.4,180z"/>
						</g>
						<path id="XMLID_1506_" class="st34" d="M487.1,181.7c0.8,0.2,1.9,0.7,2,1.5c0,0.8-1.2,0.8-1.2,0.8s0.9,0.4,1,1
							c0.1,0.6-0.5,1.1-1.3,1.1c0,0,0.8,0.3,0.6,1c-0.3,0.8-1.5,0.1-1.8,0.7c0,0-0.7-0.7-0.8-2.3
							C485.5,183.8,487.1,181.7,487.1,181.7z"/>
						<path id="XMLID_1505_" class="st34" d="M493.9,184.9c-0.8-1.5-1.5-2.5-3.2-3.2c-1.5-0.6-2.2-1.7-2.5-1.1
							c-0.4,0.6,0.7,2.4,2.3,2.9L493.9,184.9z"/>
						<g id="XMLID_1504_">
							<path class="st43" d="M485.5,179.7l6.5,0.8c1.7,0.2,2.7-8.3,1-8.5l-6.4-1.1L485.5,179.7z"/>
						</g>
						<path id="XMLID_1503_" class="st31" d="M486.7,170.9c-2.4-0.3-10.5-4.1-12.3-10.9c-6.7-0.8-9.8,23.8-3.1,24.6
							c1.8-4.3,11-5.3,14.2-4.9C486.8,179.9,488,171.1,486.7,170.9z"/>
						<g id="XMLID_1502_">
							<path class="st39" d="M513.7,153.2c2.1,0.5,5.1,2.9,5.8,5.5"/>
							<path class="st44" d="M513.7,153.2c2.1,0.5,5.1,2.9,5.8,5.5"/>
						</g>
					</g>
					<g id="XMLID_1495_">
						<g id="XMLID_1500_">
							<path class="st45" d="M313.8,232.6c5.3,4.9,11.2,8.2,17.9,6.9c9.5-1.8,16.9-11.5,16.9-11.5s2.4,3.2,2.4,3.5
								c0,0.3-6.3,12.8-17.6,15.3c-11.4,2.6-21.6-5.6-21.6-5.6L313.8,232.6z"/>
						</g>
						<path id="XMLID_1499_" class="st31" d="M411.2,299.8c4.5,6.3,12.9,8.5,19.9,5l12.7-6.2c2.4-1.2,5.3-0.4,6.8,1.9l22.9,35.9
							c1.6,2.5,0.8,5.9-1.8,7.4c-7.4,4.2-22.7,11.3-39.5,9.9c-23.6-1.9-39-23.9-65-64.8c-26-40.9-39.4-64.1-31.1-86.3
							c5.9-15.8,18.8-26.7,25.7-31.6c2.4-1.7,5.9-1.1,7.5,1.5l22.9,35.9c1.4,2.3,0.9,5.2-1.1,6.9l-11,8.8
							c-6.1,4.9-7.7,13.4-3.9,20.2L411.2,299.8z"/>
						<path id="XMLID_1498_" class="st46" d="M381.5,222.8l9.3-7.4c2.1-1.7,2.6-4.7,1.1-6.9l-12.1-19l-10.9-17.1
							c-1.7-2.4-4.9-3-7.3-1.3c-2.3,1.7-5.4,4-8.6,7L381.5,222.8z"/>
						<path id="XMLID_1497_" class="st46" d="M461.5,348.6c4.1-1.6,7.5-3.4,10-4.8c2.5-1.4,3.4-4.6,2-7.2L450,299.8
							c-1.5-1.7-4.1-2.3-6.2-1.2l-10.8,5.3L461.5,348.6z"/>
						<g id="XMLID_1496_">
							<path class="st27" d="M314.1,232.9l4.3,3.2c0,0,2,6-1.3,9.1l-5.7-3.5L314.1,232.9z"/>
						</g>
					</g>
					<g id="XMLID_1492_">
						<path id="XMLID_1494_" class="st47" d="M239.4,355.4c0,0,4.3-3.2,7-8.9c2.8-5.9,0.3-11.1-3.7-10.4c-4.2,0.8-4.8-2.7-6-7
							c-1.4-5.3-8.2-12.7-13.7-12c-7.2,1-2.6,8.6-1.9,11.4c0.7,2.8,2.5,6-1.9,6.4c-4,0.4-5.8,4.1-2.7,7.8c3,3.6,6.3,3.5,6.4,7.1
							c0.1,3.6,2.4,4.6,4.3,5.5H239.4z"/>
						<path id="XMLID_1493_" class="st30" d="M226,323.5c0,0,9.7,12.7,7.3,32"/>
					</g>
					<g id="XMLID_1489_">
						<path id="XMLID_1491_" class="st29" d="M326.5,355.4c0,0,2.8-3.7,1.1-9.1c-2.1-6.9-8.6-10.1-6.2-14.6
							c1.9-3.8,7.7-1.9,10.7,3.2c2.9,4.9,3.2,15.1-1.5,20.5H326.5z"/>
						<path id="XMLID_1490_" class="st30" d="M325.9,333.7c0,0,8.8,9.6,3,21.7"/>
					</g>
					<g id="XMLID_1486_">
						<path id="XMLID_1488_" class="st48" d="M333,355.4c0,0,6.7-4.1,10.3-12.5c3.7-8.4,3.8-18.3,0-21.8c-3.6-3.3-7.8-1.3-8.9,4.4
							c-1.1,5.7,1.4,20.2-6,29.8H333z"/>
						<path id="XMLID_1487_" class="st30" d="M340,322.8c0,0,1.1,8.6-1.4,17.8c-2.5,9.2-7.3,14.8-7.3,14.8"/>
					</g>
					<g id="XMLID_1483_">
						<path id="XMLID_1485_" class="st47" d="M426.9,355.4c0,0,0.1-11.8-9.2-22.7c-9.3-11-20-14.9-29.2-11.6
							c-6.9,2.5-5.1,10.4,0.5,13.8c6.6,4,31.5,5.6,32.4,20.5H426.9z"/>
						<path id="XMLID_1484_" class="st30" d="M389.5,326.5c12.7-0.7,32.1,11,34.8,29"/>
					</g>
					<g id="XMLID_1479_">
						<path id="XMLID_1482_" class="st49" d="M429.8,355.4c0,0,6.1-6.5,5-19.2c-1.2-12.6-12.3-15.7-14.3-9.6
							c-1.6,4.8,9.2,16,5.4,28.8H429.8z"/>
						<path id="XMLID_1481_" class="st30" d="M425.9,327.5c2.4,3.1,7,15.7,2.3,27.9"/>
					</g>
					<g id="XMLID_1478_">
						<path class="st50" d="M622.3,357H209.9c-0.9,0-1.6-0.7-1.6-1.6l0,0c0-0.9,0.7-1.6,1.6-1.6h412.4c0.9,0,1.6,0.7,1.6,1.6l0,0
							C623.9,356.3,623.2,357,622.3,357z"/>
					</g>
					<g id="XMLID_1477_">
						<path class="st51" d="M565.4,396.3H310.4c-17.5,0-31.6-14.2-31.6-31.6V357h318.3v7.7C597.1,382.2,582.9,396.3,565.4,396.3z"/>
					</g>
				</g>
				<g id="XMLID_1429_">
					<g id="XMLID_1450_">
						<g id="XMLID_1468_">
							<g id="XMLID_1475_">
								<path class="st52" d="M323.3,352.2c0.3,0.5,0.1,1.4-1.9,2.2c-1.9,0.8-5.4,0.5-6.8,0.2c-1.4-0.3-2.2-0.7-4.3-0.2
									c-2,0.4-5.4,0.2-6.4-0.6c-0.4-0.4-0.1-1.3-0.1-1.3L323.3,352.2z"/>
							</g>
							<g id="XMLID_1470_">
								<defs>
									<path id="SVGID_20_" d="M304.9,346.2c-0.3,1.4-1.4,4.7-1.1,6.3c1.4,1.2,4.5,1.3,6.8,0.7c2.3-0.6,3.9,0.6,6.8,0.8
										c2.8,0.2,5.2-0.6,5.8-1.8c0.6-1.3-4.3-2.3-7.7-3.3c-3.8-1.2-5.7-3-5.7-3L304.9,346.2z"/>
								</defs>
								<use xlink:href="#SVGID_20_"  style="overflow:visible;fill:#030377;"/>
								<clipPath id="SVGID_21_">
									<use xlink:href="#SVGID_20_"  style="overflow:visible;"/>
								</clipPath>
								<g id="XMLID_1474_" class="st53">
									<path class="st54" d="M310.9,348.9c0,0,0.7-1.9,1.6-2.5"/>
								</g>
								<g id="XMLID_1473_" class="st53">
									<path class="st54" d="M313.5,349.9c0,0,0.7-1.9,1.6-2.5"/>
								</g>
								<g id="XMLID_1472_" class="st53">
									<path class="st54" d="M316.1,351c0,0,0.7-1.9,1.6-2.5"/>
								</g>
							</g>
							<g id="XMLID_1469_">
								<path class="st34" d="M304.9,340.6v5.6c0,0,0.6,0.2,0.9,0.5c0.3,0.3,0.6,1.4,1.1,1.4c1.8,0.1,2.9-2.3,2.9-2.3l0.7-5.1
									L304.9,340.6z"/>
							</g>
						</g>
						<g id="XMLID_1460_">
							<g id="XMLID_1467_">
								<path class="st52" d="M259.7,353.6c-0.4,0.4-1.4,0.4-2.7-1.2c-1.3-1.6-1.9-5.1-2-6.5c-0.1-1.4,0.1-2.3-0.9-4.2
									c-1-1.9-1.7-5.1-1.1-6.4c0.3-0.4,1.2-0.4,1.2-0.4L259.7,353.6z"/>
							</g>
							<g id="XMLID_1462_">
								<defs>
									<path id="SVGID_22_" d="M260.6,334.3c-1.4,0.1-4.9-0.1-6.4,0.6c-0.8,1.7-0.1,4.7,1.1,6.8s0.5,4,1.1,6.8
										c0.6,2.8,2,4.9,3.3,5.1c1.4,0.3,1.1-4.8,1.2-8.3c0.1-4,1.4-6.3,1.4-6.3L260.6,334.3z"/>
								</defs>
								<use xlink:href="#SVGID_22_"  style="overflow:visible;fill:#030377;"/>
								<clipPath id="SVGID_23_">
									<use xlink:href="#SVGID_22_"  style="overflow:visible;"/>
								</clipPath>
								<g id="XMLID_1466_" class="st55">
									<path class="st52" d="M259.6,340.9c0,0,2,0.2,2.9,0.9"/>
									<path class="st56" d="M259.6,340.9c0,0,2,0.2,2.9,0.9"/>
								</g>
								<g id="XMLID_1465_" class="st55">
									<path class="st52" d="M259.3,343.7c0,0,2,0.2,2.9,0.9"/>
									<path class="st56" d="M259.3,343.7c0,0,2,0.2,2.9,0.9"/>
								</g>
								<g id="XMLID_1464_" class="st55">
									<path class="st52" d="M259,346.4c0,0,2,0.2,2.9,0.9"/>
									<path class="st56" d="M259,346.4c0,0,2,0.2,2.9,0.9"/>
								</g>
							</g>
							<g id="XMLID_1461_">
								<path class="st34" d="M264.2,331.7l-3.6,2.6c0,0,0,0.7-0.3,1c-0.2,0.3-1.2,1-1.1,1.4c0.4,1.8,3,2.2,3,2.2l5-2.7L264.2,331.7
									z"/>
							</g>
						</g>
						<g id="XMLID_1459_">
							<path class="st43" d="M315.7,260.7c-6.3,0-11,0.5-11,0.5c-2,0.9-5.5,5.4-6.5,8.3c-1,2.9,0.5,6.9,1,9.4
								c2.9,13.9,6,23.5,7.1,29c0.7,3.4-1.8,3.9-1.8,9.2c0,7.6,0.3,23.9,0.3,23.9s2.4,1.4,5.5,0.4c0,0,4.7-26.8,5.2-29.9
								c0.8-5,1.1-7.1,1.2-15.7C316.9,283.9,315.7,260.7,315.7,260.7z"/>
						</g>
						<g id="XMLID_1458_">
							<path class="st57" d="M315.6,271.3c-1,4.9-8.1,10.8-8.1,10.8c-0.8,2.3-11.1,37.6-12.8,39c-1.7,1.3-27.4,15.2-27.4,15.2
								c-1.2-0.7-2-1.7-2.4-2.6c-0.3-0.7-0.5-1.3-0.6-1.7c0-0.1,0-0.2,0-0.2c0,0,0-0.1,0-0.1s13.1-13.9,16.2-15.4
								c3.4-1.6,5.3-2.1,5.3-2.1v0c3.5-16.4,3.4-29.3,6.3-38.3c0.5-1.7,1.1-3.2,1.7-4.5c0.7-1.6,1.3-3,1.7-4.1
								c0.2-0.5,0.4-0.9,0.5-1.4c0.2-0.4,0.3-0.8,0.4-1.2c0.1-0.3,0.2-0.5,0.2-0.7c0.3-1,0.6-1.9,0.8-2.6c0.1-0.3,0.2-0.7,0.4-1
								c0.1-0.2,0.1-0.3,0.2-0.5c0.1-0.2,0.1-0.4,0.2-0.5h0v0l4.9,3.7l2.4,1.8L315.6,271.3z"/>
						</g>
						<g id="XMLID_1457_">
							<path class="st58" d="M305.5,264.8c-0.7,0.9-1.7,2.1-3,3.2c-3.6,3.2-5.8,8.1-7.8,18.3c-2.2,11.5-5.9,28.6-6.3,29.7
								c-0.4,1.1-3.7,0.7-9.6,5c-4.5,3.3-11,10.1-13.9,12.7c-0.3-0.7-0.5-1.3-0.6-1.7c0-0.1,0-0.2,0-0.2c0,0,0-0.1,0-0.1
								s13.1-13.9,16.2-15.4c3.4-1.6,5.3-2.1,5.3-2.1v0c3.4-16.4,3.4-29.3,6.3-38.3c0.5-1.7,1.1-3.2,1.7-4.5c0.7-1.6,1.3-3,1.7-4.1
								c0.2-0.5,0.4-1,0.5-1.4c0.2-0.4,0.3-0.8,0.4-1.2c0.1-0.3,0.2-0.5,0.2-0.7c0.3-1,0.6-1.9,0.8-2.6c0.1-0.3,0.2-0.7,0.4-1
								c0.1-0.2,0.1-0.3,0.2-0.5c0.1-0.2,0.2-0.3,0.2-0.5v0l4.9,3.7L305.5,264.8z"/>
						</g>
						<path id="XMLID_1456_" class="st58" d="M315.6,271.3c0,0-3.2,4.2-12,4.5c-6.1,0.2-10-2.2-10-2.2l2.4-3.7L315.6,271.3z"/>
						<g id="XMLID_1451_">
							<defs>
								<path id="SVGID_24_" d="M267.3,336.3c0,0,25.7-13.9,27.4-15.2c1.7-1.3,12-36.7,12.8-39c0,0,7.6-6.2,8.7-11.1l-17.6-11.5
									c-1.3,2.9-1.3,4.8-4.9,12c-3.4,6.9-4.7,26.3-7.9,42.8c0,0-1.9,0.4-5.3,2.1c-3.1,1.5-16.2,15.4-16.2,15.4
									S264.6,334.8,267.3,336.3z"/>
							</defs>
							<clipPath id="SVGID_25_">
								<use xlink:href="#SVGID_24_"  style="overflow:visible;"/>
							</clipPath>
							<path id="XMLID_1455_" class="st59" d="M311.9,261.6c-3.7,4.7-8.4,7.6-10.4,10.9c-2,3.3-3.1,10.3-5.6,23.1
								c-2.5,12.8-4.8,21.5-5.5,22.2c-0.7,0.8-5,1.5-11.8,6.1c-6.8,4.5-14.6,11.8-14.6,11.8"/>
							<path id="XMLID_1454_" class="st59" d="M307.8,272.8c0,0-1.5,8.1-8.7,6.7"/>
							<path id="XMLID_1453_" class="st59" d="M265.6,329.2c0,2.2,1.6,5.3,4.3,7"/>
						</g>
					</g>
					<g id="XMLID_1446_">
						<g id="XMLID_1447_">
							<g id="XMLID_1449_">
								<polygon class="st34" points="306.7,224.6 312.8,229.9 316.3,221.6 309,217.4 								"/>
							</g>
							<g id="XMLID_1448_">
								<path class="st42" d="M315.2,224c0,0-7.2-2-6.2-6.6l7.2,4.2L315.2,224z"/>
							</g>
						</g>
					</g>
					<g id="XMLID_1445_">
						<path class="st60" d="M312.6,229.7c1.4,1.2,2.3,2.8,2.5,4.7c0.3,2.9,0.6,7.3,0.8,13.7c0.2,5.8,0.8,22.6,0.8,22.6
							s-4.4,2.9-11.9,2.3c-7.1-0.6-10.2-4.1-10.2-4.1s0.7-23.7,3.1-33c3.5-9.6,8.9-11.3,8.9-11.3L312.6,229.7z"/>
					</g>
					<g id="XMLID_1434_">
						<g id="XMLID_1444_">
							<path class="st42" d="M319.9,210.6c0.4,0.6,2.3,3.4,3,4.2c0.6,0.8-1.9,1-1.9,1L319.9,210.6z"/>
						</g>
						<g id="XMLID_1443_">
							<path class="st34" d="M309,217.4c0,0,0.4,0.9,0.8,1.7c0.4,0.7,6.4,3.1,8,3.3c1.6,0.2,3.7-0.1,3.2-5.4s-1.8-9.8-5.3-12.2
								c-3.5-2.4-8.4,0.2-10.6,3.6C303.1,211.8,305.4,218.4,309,217.4z"/>
						</g>
						<g id="XMLID_1442_">
							<path class="st61" d="M309,217.4L309,217.4l-0.8,2.4c0,0-0.6,0.3-2.1-1.6c-1.7-2.1-4.7-5.6-4.4-7.8c0.4-2.9,3.8-4,3.8-4
								s1.7-5.4,8.4-8.3c6.7-2.9,9.7,2,4.5,5.6c0,0,3.6,1.8,1.3,3.2c-2.3,1.4-8.8,1.2-8.8,1.2s3.2,1.2,2.2,2.1
								c-0.9,0.9-5.1,0.5-5.1,0.5l0.5,2.1c0,0-1.7-0.5-2.6,0.6C305.1,214.6,306.7,218.1,309,217.4z"/>
						</g>
						<g id="XMLID_1441_">
							<path class="st61" d="M304.8,200.1c0,0-2,4.3,1.8,7.3c0,0-3.8-0.1-4.6-3.7"/>
							<path class="st62" d="M304.8,200.1c0,0-2,4.3,1.8,7.3c0,0-3.8-0.1-4.6-3.7"/>
						</g>
						<g id="XMLID_1435_">
							<g id="XMLID_1438_">
								<path id="XMLID_1440_" class="st61" d="M317.3,211.7c-0.1-0.3-0.5-0.5-0.8-0.4c-0.3,0.1-0.5,0.5-0.4,0.8
									c0.1,0.3,0.5,0.5,0.8,0.4C317.2,212.4,317.4,212,317.3,211.7z"/>
								<path id="XMLID_1439_" class="st61" d="M317.3,209.9l-2.6,1.7c0,0-0.2-1,0.7-1.6C316.5,209.3,317.3,209.9,317.3,209.9z"/>
							</g>
							<g id="XMLID_1437_">
								<path class="st42" d="M307,213.9c0.3-0.2,0.9-0.4,1.3-0.2c0.1,0.1,0,0.3-0.1,0.3c-0.7-0.1-1.5,0.1-1.6,1c0,0,0,0,0,0
									C306.4,214.5,306.6,214.2,307,213.9z"/>
							</g>
							<g id="XMLID_1436_">
								<path class="st42" d="M307.3,213.9c0.1-0.1,0.3,0.1,0.3,0.1c-0.1,0.1-0.2,0.2-0.3,0.4c-0.1,0.3-0.1,0.5,0.1,0.8
									c0.2,0.6,0.7,1,1.4,1c0,0,0,0,0,0c-0.5,0.3-1.3-0.1-1.6-0.6C306.9,215.2,306.7,214.4,307.3,213.9z"/>
							</g>
						</g>
					</g>
					<g id="XMLID_1433_">
						<path class="st27" d="M304.1,229.9c-1.5,0.8-3.4,5-2,9.6c1.4,4.6,3.2,9.3,3.2,9.3s7.1-1.7,9-6.2c0,0-2.5-6.1-3.7-8.6
							S307.8,227.9,304.1,229.9z"/>
					</g>
					<g id="XMLID_1432_">
						<path class="st27" d="M311.5,256.5c1.6,1.6,3.8,3.3,5,3.8c-0.1-2.7-0.2-4.9-0.3-7.4l-5.3-7l-3.5-0.9l-1.3,3.6
							C306.1,248.6,309,254,311.5,256.5z"/>
					</g>
					<g id="XMLID_1431_">
						<path class="st34" d="M305.7,229.9c-3.4,0.9-4.5,5.7-1.1,13.1c3.2,7.1,8.4,13.7,11.6,15.9c3.2,2.2,15.6,1.5,26-1.6
							c0,0,5.9-2.1,7.6-3.6c3.7-3.2,3.8-7.6,1.2-6.9c-2.7,0.6-6.9,3.6-6.9,3.6s-1.1-2.2-1.9-3.9c0,0-0.7,0.2-1,1.7
							c-0.3,1.5-0.2,3.7-0.7,4c-1.2,0.8-17.8,2.2-19.8,0.3c-2.2-2.2-5.5-8.1-7.8-13.5C310.2,232.9,309.2,228.9,305.7,229.9z"/>
					</g>
					<g id="XMLID_1430_">
						<path class="st27" d="M304.6,229.1c-1.5,0.8-3.4,5-2,9.6c1.4,4.6,3.2,9.3,3.2,9.3s6.7-1,9.5-4.8c0,0-3-7.5-4.2-10
							S308.3,227.1,304.6,229.1z"/>
					</g>
				</g>
			</g>
			<g>
				<g id="XMLID_1329_">
					<g id="XMLID_1353_">
						<g id="XMLID_1396_">
							<g id="XMLID_1398_">
								<defs>
									<path id="SVGID_26_" d="M482.7,265.4c-0.1,1.5,0.3,5.2-0.4,6.7c-1.8,0.9-4.9,0.2-7.1-0.9c-2.2-1.2-4.2-0.4-7.2-0.9
										c-2.9-0.5-5.2-1.9-5.5-3.3c-0.3-1.5,5-1.3,8.7-1.5c4.2-0.3,6.6-1.7,6.6-1.7L482.7,265.4z"/>
								</defs>
								<clipPath id="SVGID_27_">
									<use xlink:href="#SVGID_26_"  style="overflow:visible;"/>
								</clipPath>
							</g>
						</g>
						<g id="XMLID_1387_">
							<g id="XMLID_1389_">
								<defs>
									<path id="SVGID_28_" d="M496.5,264.1c1,1.1,3.8,3.5,4.4,5.1c-0.6,1.9-3.4,3.6-5.8,4.3c-2.4,0.7-3.2,2.7-5.7,4.4
										c-2.5,1.7-5,2.2-6.2,1.5c-1.3-0.8,2.7-4.4,5.2-7.2c2.8-3.1,3.5-5.8,3.5-5.8L496.5,264.1z"/>
								</defs>
								<clipPath id="SVGID_29_">
									<use xlink:href="#SVGID_28_"  style="overflow:visible;"/>
								</clipPath>
							</g>
						</g>
						<g id="XMLID_1380_">
							<defs>
								<path id="SVGID_30_" d="M525.7,211.4c0.7,1.8,2.3,4,3.3,5.7c1,1.7,4,6.2,2.3,10.9c-1.9,5.1-6.1,6.3-10.5,6.3s-7.2,0-10.1,0
									c-3,0-21.3-4.5-21.3-4.5s2.1,1.2,3.1,4.5c1,3.3,3.1,25.3,3.1,25.3c-1.3,1.4-3.2,1.9-5.6,1.7c0,0-5.5-17-7.8-23.3
									c-2.3-6.5-5-13-4.5-15.8c0.7-4,7.6-4.1,13.3-3.9c5.7,0.2,18.8,0.7,21.5,0.3l-1.4-4.8L525.7,211.4z"/>
							</defs>
							<clipPath id="SVGID_31_">
								<use xlink:href="#SVGID_30_"  style="overflow:visible;"/>
							</clipPath>
						</g>
					</g>
				</g>
				<g id="XMLID_1282_">
					<g id="XMLID_1303_">
						<g id="XMLID_1321_">
							<g id="XMLID_1323_">
								<defs>
									<path id="SVGID_32_" d="M304.9,346.2c-0.3,1.4-1.4,4.7-1.1,6.3c1.4,1.2,4.5,1.3,6.8,0.7c2.3-0.6,3.9,0.6,6.8,0.8
										c2.8,0.2,5.2-0.6,5.8-1.8c0.6-1.3-4.3-2.3-7.7-3.3c-3.8-1.2-5.7-3-5.7-3L304.9,346.2z"/>
								</defs>
								<clipPath id="SVGID_33_">
									<use xlink:href="#SVGID_32_"  style="overflow:visible;"/>
								</clipPath>
							</g>
						</g>
						<g id="XMLID_1313_">
							<g id="XMLID_1315_">
								<defs>
									<path id="SVGID_34_" d="M260.6,334.3c-1.4,0.1-4.9-0.1-6.4,0.6c-0.8,1.7-0.1,4.7,1.1,6.8s0.5,4,1.1,6.8
										c0.6,2.8,2,4.9,3.3,5.1c1.4,0.3,1.1-4.8,1.2-8.3c0.1-4,1.4-6.3,1.4-6.3L260.6,334.3z"/>
								</defs>
								<clipPath id="SVGID_35_">
									<use xlink:href="#SVGID_34_"  style="overflow:visible;"/>
								</clipPath>
							</g>
						</g>
						<g id="XMLID_1304_">
							<defs>
								<path id="SVGID_36_" d="M267.3,336.3c0,0,25.7-13.9,27.4-15.2c1.7-1.3,12-36.7,12.8-39c0,0,7.6-6.2,8.7-11.1l-17.6-11.5
									c-1.3,2.9-1.3,4.8-4.9,12c-3.4,6.9-4.7,26.3-7.9,42.8c0,0-1.9,0.4-5.3,2.1c-3.1,1.5-16.2,15.4-16.2,15.4
									S264.6,334.8,267.3,336.3z"/>
							</defs>
							<clipPath id="SVGID_37_">
								<use xlink:href="#SVGID_36_"  style="overflow:visible;"/>
							</clipPath>
						</g>
					</g>
				</g>
			</g>
		</g>
	</g>
</g>
<g id="Designed_by_Freepik" class="st0">
	<g id="XMLID_60_" class="st15">
		<g id="XMLID_89_">
			<g id="XMLID_108_">
				<path id="XMLID_116_" class="st63" d="M385.1,475.5c-0.4,0.4-0.8,0.9-1.1,1.5l-0.5-0.2c-0.1-0.3-0.3-0.5-0.7-0.5
					c-0.3,0-0.6,0.3-0.5,0.7c0,0.3,0.3,0.6,0.7,0.5c0.1,0,0.1,0,0.2-0.1l0.5,0.2c-0.3,0.6-0.4,1.1-0.5,1.7l0.7,0.1
					c0.2-1.3,0.8-2.5,1.8-3.5L385.1,475.5z"/>
				<path id="XMLID_115_" class="st63" d="M390.6,473.2c-0.2,0-0.3,0-0.5,0l-0.1-0.6c0.2-0.1,0.3-0.4,0.3-0.6c0-0.4-0.4-0.7-0.8-0.6
					c-0.4,0-0.7,0.4-0.6,0.8c0,0.3,0.2,0.5,0.4,0.6l0.1,0.6c-0.7,0.1-1.4,0.3-2.1,0.6l0.3,0.7c0.9-0.4,1.9-0.7,3-0.7
					c0.5,0,1,0.1,1.5,0.2l0.2-0.7C391.7,473.2,391.1,473.2,390.6,473.2z"/>
				<path id="XMLID_114_" class="st63" d="M397.2,475.7c0.3,0,0.6-0.3,0.5-0.7c0-0.3-0.3-0.6-0.7-0.5c-0.3,0-0.5,0.3-0.5,0.6
					l-0.4,0.4c-0.4-0.4-0.9-0.8-1.4-1.1l-0.4,0.6c1.1,0.7,2,1.7,2.6,2.9l0.7-0.3c-0.3-0.6-0.6-1.1-0.9-1.5l0.4-0.4
					C397.1,475.7,397.1,475.7,397.2,475.7z"/>
				<path id="XMLID_113_" class="st63" d="M390,483.4c-0.4,0-0.8,0-1.2,0c-0.9,0-1.7-0.1-2.5-0.2c-0.4-0.1-0.8-0.2-1.3-0.3
					c1,1.9,3.1,3.1,5.4,3.1c2.9,0,5.3-1.9,5.9-4.5c-0.7,0.4-1.5,0.8-2.5,1.1C392.8,483.1,391.5,483.3,390,483.4z"/>
				<path id="XMLID_109_" class="st63" d="M390.6,474.7c-3.4,0-6.1,2.7-6.1,5.9c0,0.4,0,0.8,0.1,1.3c0.7,0.5,2.7,0.9,5.3,0.7
					c2.9-0.2,5.3-1,6.7-2.2c0-0.2,0-0.4,0-0.6C396.2,476.9,393.7,474.7,390.6,474.7z M388.4,481.2c-1,0-1.8-0.8-1.8-1.8
					c0-1,0.8-1.8,1.8-1.8c1,0,1.8,0.8,1.8,1.8C390.3,480.4,389.5,481.2,388.4,481.2z M393.2,480.3c-0.8,0-1.4-0.6-1.4-1.4
					c0-0.8,0.6-1.4,1.4-1.4c0.8,0,1.4,0.6,1.4,1.4C394.5,479.7,393.9,480.3,393.2,480.3z"/>
			</g>
			<path id="XMLID_106_" class="st63" d="M406.6,476.6c-0.3-0.1-0.8-0.3-1.4-0.2c-0.6,0.1-0.8,0.3-0.8,1v0.9h2.2v1.7h-2.2v5.5h-1.9
				v-5.5h-1.3v-1.7h1.3v-0.9c0-1.7,0.9-2.8,2.6-2.8c0.6,0,1.2,0.1,1.6,0.3L406.6,476.6z"/>
			<path id="XMLID_104_" class="st63" d="M411.3,479.9c-0.2,0-0.4,0-0.5,0c-0.9,0-1.5,0.5-1.5,1.6v3.9h-1.9v-7.2h1.9v0.8
				c0.5-0.7,1.1-1,2-1c0.4,0,0.8,0.1,1.1,0.3L411.3,479.9z"/>
			<path id="XMLID_101_" class="st63" d="M419,481.8c0,0.2,0,0.5,0,0.7h-5.1c0.2,1,0.9,1.5,1.8,1.5c0.6,0,1.3-0.3,1.8-0.7l1.1,1.2
				c-0.8,0.7-1.9,1.1-3.1,1.1c-2.2,0-3.7-1.5-3.7-3.8c0-2.3,1.5-3.8,3.6-3.8C417.5,478,419,479.5,419,481.8z M413.9,481.1h3.2
				c-0.2-0.9-0.7-1.4-1.6-1.4C414.6,479.7,414,480.2,413.9,481.1z"/>
			<path id="XMLID_98_" class="st63" d="M426.6,481.8c0,0.2,0,0.5,0,0.7h-5.1c0.2,1,0.9,1.5,1.8,1.5c0.6,0,1.3-0.3,1.8-0.7l1.1,1.2
				c-0.8,0.7-1.9,1.1-3.1,1.1c-2.2,0-3.7-1.5-3.7-3.8c0-2.3,1.5-3.8,3.6-3.8C425.2,478,426.6,479.5,426.6,481.8z M421.5,481.1h3.2
				c-0.2-0.9-0.7-1.4-1.6-1.4C422.2,479.7,421.7,480.2,421.5,481.1z"/>
			<path id="XMLID_95_" class="st63" d="M435,481.8c0,2.2-1.5,3.8-3.5,3.8c-1,0-1.6-0.4-2.1-0.9v3.7h-1.9v-10.1h1.9v0.8
				c0.5-0.6,1.2-1,2.1-1C433.5,478,435,479.6,435,481.8z M429.3,481.8c0,1.1,0.7,2,1.8,2c1.1,0,1.9-0.9,1.9-2c0-1.1-0.7-2-1.9-2
				C430,479.8,429.3,480.6,429.3,481.8z"/>
			<path id="XMLID_92_" class="st63" d="M438.1,475.8c0,0.7-0.5,1.2-1.2,1.2c-0.7,0-1.2-0.5-1.2-1.2c0-0.7,0.5-1.2,1.2-1.2
				C437.5,474.6,438.1,475.1,438.1,475.8z M437.8,485.4h-1.9v-7.2h1.9V485.4z"/>
			<path id="XMLID_90_" class="st63" d="M441,480.7l2.7-2.6h2.4l-3.5,3.4l3.5,3.8h-2.4l-2.7-2.9v2.9h-1.9v-10.7h1.9V480.7z"/>
		</g>
		<g id="XMLID_61_">
			<path id="XMLID_86_" class="st63" d="M309.4,485.3v-1.1c-0.5,0.7-1.4,1.2-2.4,1.2c-1.8,0-3.1-1.4-3.1-3.7c0-2.3,1.3-3.7,3.1-3.7
				c1,0,1.8,0.5,2.4,1.2v-3.8h1.1v9.8H309.4z M309.4,483.4v-3.2c-0.4-0.6-1.2-1.1-2.1-1.1c-1.4,0-2.3,1.2-2.3,2.7
				c0,1.6,0.8,2.7,2.3,2.7C308.2,484.5,309,484,309.4,483.4z"/>
			<path id="XMLID_83_" class="st63" d="M311.9,481.8c0-2.1,1.5-3.7,3.5-3.7c2.1,0,3.4,1.7,3.4,3.8v0.3h-5.7c0.1,1.3,1,2.4,2.5,2.4
				c0.8,0,1.6-0.3,2.2-0.9l0.5,0.7c-0.7,0.7-1.7,1.1-2.8,1.1C313.4,485.5,311.9,484,311.9,481.8z M315.4,479c-1.5,0-2.3,1.3-2.3,2.4
				h4.6C317.7,480.3,317,479,315.4,479z"/>
			<path id="XMLID_81_" class="st63" d="M319.6,484.4l0.6-0.8c0.5,0.5,1.4,1,2.3,1c1.1,0,1.7-0.5,1.7-1.2c0-1.7-4.4-0.7-4.4-3.3
				c0-1.1,1-2,2.6-2c1.2,0,2.1,0.5,2.6,1l-0.5,0.8c-0.4-0.5-1.2-0.9-2.1-0.9c-1,0-1.6,0.5-1.6,1.1c0,1.6,4.4,0.5,4.4,3.3
				c0,1.2-1,2.1-2.8,2.1C321.3,485.5,320.3,485.1,319.6,484.4z"/>
			<path id="XMLID_78_" class="st63" d="M326.5,476.5c0-0.4,0.3-0.7,0.7-0.7c0.4,0,0.7,0.3,0.7,0.7c0,0.4-0.3,0.7-0.7,0.7
				C326.8,477.2,326.5,476.9,326.5,476.5z M326.7,485.3v-7.1h1.1v7.1H326.7z"/>
			<path id="XMLID_75_" class="st63" d="M329.6,487.1l0.6-0.8c0.6,0.7,1.3,1,2.3,1c1.2,0,2.3-0.6,2.3-2.1v-1
				c-0.5,0.7-1.4,1.3-2.4,1.3c-1.8,0-3.1-1.4-3.1-3.7c0-2.3,1.3-3.7,3.1-3.7c1,0,1.8,0.5,2.4,1.2v-1.1h1.1v6.9
				c0,2.3-1.6,3.1-3.4,3.1C331.2,488.2,330.4,487.9,329.6,487.1z M334.7,483.3v-3.1c-0.4-0.6-1.2-1.1-2.1-1.1
				c-1.4,0-2.3,1.1-2.3,2.7c0,1.6,0.8,2.7,2.3,2.7C333.5,484.4,334.3,483.9,334.7,483.3z"/>
			<path id="XMLID_73_" class="st63" d="M342.4,485.3v-4.6c0-1.2-0.6-1.6-1.6-1.6c-0.9,0-1.7,0.5-2.1,1.1v5.2h-1.1v-7.1h1.1v1
				c0.5-0.6,1.5-1.2,2.5-1.2c1.5,0,2.3,0.7,2.3,2.3v5H342.4z"/>
			<path id="XMLID_70_" class="st63" d="M344.9,481.8c0-2.1,1.5-3.7,3.5-3.7c2.1,0,3.4,1.7,3.4,3.8v0.3h-5.7c0.1,1.3,1,2.4,2.5,2.4
				c0.8,0,1.6-0.3,2.2-0.9l0.5,0.7c-0.7,0.7-1.7,1.1-2.8,1.1C346.4,485.5,344.9,484,344.9,481.8z M348.4,479c-1.5,0-2.3,1.3-2.3,2.4
				h4.6C350.7,480.3,350,479,348.4,479z"/>
			<path id="XMLID_67_" class="st63" d="M358.4,485.3v-1.1c-0.5,0.7-1.4,1.2-2.4,1.2c-1.8,0-3.1-1.4-3.1-3.7c0-2.3,1.3-3.7,3.1-3.7
				c1,0,1.8,0.5,2.4,1.2v-3.8h1.1v9.8H358.4z M358.4,483.4v-3.2c-0.4-0.6-1.2-1.1-2.1-1.1c-1.4,0-2.3,1.2-2.3,2.7
				c0,1.6,0.8,2.7,2.3,2.7C357.1,484.5,358,484,358.4,483.4z"/>
			<path id="XMLID_64_" class="st63" d="M364.7,485.3v-9.8h1.1v3.8c0.6-0.8,1.4-1.2,2.4-1.2c1.8,0,3.1,1.5,3.1,3.7
				c0,2.3-1.3,3.7-3.1,3.7c-1,0-1.9-0.5-2.4-1.2v1.1H364.7z M367.9,484.5c1.4,0,2.3-1.2,2.3-2.7c0-1.6-0.8-2.7-2.3-2.7
				c-0.9,0-1.7,0.5-2.1,1.1v3.2C366.2,484,367,484.5,367.9,484.5z"/>
			<path id="XMLID_62_" class="st63" d="M372.5,487.1c0.2,0.1,0.4,0.1,0.6,0.1c0.5,0,0.8-0.2,1.1-0.7l0.5-1.1l-3-7.1h1.2l2.4,5.8
				l2.3-5.8h1.2l-3.5,8.5c-0.4,1-1.1,1.4-2.1,1.4c-0.2,0-0.6,0-0.8-0.1L372.5,487.1z"/>
		</g>
	</g>
</g>
</svg>
