<svg id="Capa_1" data-name="Capa 1" xmlns="http://www.w3.org/2000/svg" viewBox="0 0 419.76 419.76"><defs><style>.cls-1{fill:#0100f5;}</style></defs><title>lineas</title><path class="cls-1" d="M416.79,377.17l-2.09-1.59a207.06,207.06,0,0,0-53.15-300L363,73.33a210,210,0,0,1,53.82,303.84Z" transform="translate(-39.86 -40.2)"/><path class="cls-1" d="M249.74,460C134,460,39.86,365.81,39.86,250.09S134,40.2,249.74,40.2v2.63c-114.28,0-207.25,93-207.25,207.26s93,207.25,207.25,207.25a207.59,207.59,0,0,0,98.86-25l1.26,2.31A210.27,210.27,0,0,1,249.74,460Z" transform="translate(-39.86 -40.2)"/><path class="cls-1" d="M150.42,411.64a188.54,188.54,0,0,1-90.3-161.55h5.26a183.32,183.32,0,0,0,87.8,157.08Z" transform="translate(-39.86 -40.2)"/><path class="cls-1" d="M249.74,439.7A189.44,189.44,0,0,1,189,429.77l1.68-5A184.5,184.5,0,0,0,433.16,268.94l5.23.53A189,189,0,0,1,249.74,439.7Z" transform="translate(-39.86 -40.2)"/><path class="cls-1" d="M431.77,220.62a184.42,184.42,0,0,0-356.42-30.5l-5-1.71A189.67,189.67,0,0,1,437,219.78Z" transform="translate(-39.86 -40.2)"/><path class="cls-1" d="M249.74,387c-75.51,0-136.95-61.44-136.95-137a135.68,135.68,0,0,1,28.47-83.61l4.15,3.22A130.39,130.39,0,0,0,118,250.09c0,72.62,59.08,131.7,131.7,131.7a131.82,131.82,0,0,0,37.85-5.52l1.51,5A137,137,0,0,1,249.74,387Z" transform="translate(-39.86 -40.2)"/><path class="cls-1" d="M342.24,351.08l-3.54-3.87a131.75,131.75,0,0,0,21-169.69l4.38-2.9a137,137,0,0,1-21.81,176.46Z" transform="translate(-39.86 -40.2)"/><path class="cls-1" d="M331.69,147a131.73,131.73,0,0,0-155.58-6.09l-2.94-4.36A137,137,0,0,1,335,142.86Z" transform="translate(-39.86 -40.2)"/><path class="cls-1" d="M249.74,363.51a113.72,113.72,0,0,1-52.94-13.08L198,348.1a110.89,110.89,0,0,0,158.55-68.54l2.53.7a113.7,113.7,0,0,1-109.37,83.25Z" transform="translate(-39.86 -40.2)"/><path class="cls-1" d="M169.55,330.3a112.7,112.7,0,0,1-33.23-80.21,113.43,113.43,0,1,1,226.85,0h-2.62a110.87,110.87,0,1,0-189.14,78.36Z" transform="translate(-39.86 -40.2)"/><path class="cls-1" d="M249.74,320.64a70.56,70.56,0,0,1,0-141.11v5.25a65.3,65.3,0,1,0,65.31,65.31h5.25a70.64,70.64,0,0,1-70.56,70.55Z" transform="translate(-39.86 -40.2)"/><path class="cls-1" d="M249.74,285.15a35.1,35.1,0,0,1-35.06-35.06h2.62a32.47,32.47,0,1,0,7.07-20.21l-2.06-1.64a35.07,35.07,0,1,1,27.43,56.91Z" transform="translate(-39.86 -40.2)"/></svg>