<?xml version="1.0" encoding="utf-8"?>
<!-- Generator: Adobe Illustrator 23.0.5, SVG Export Plug-In . SVG Version: 6.00 Build 0)  -->
<svg version="1.1" xmlns="http://www.w3.org/2000/svg" xmlns:xlink="http://www.w3.org/1999/xlink" x="0px" y="0px"
	 viewBox="0 0 500 500" style="enable-background:new 0 0 500 500;" xml:space="preserve">
<style type="text/css">
	.st0{display:none;}
	.st1{display:inline;fill:#EB496F;}
	.st2{fill:#E2E4E4;}
	.st3{fill:#F2F2F2;}
	.st4{fill:#00AA80;}
	.st5{fill:#FDBB3B;}
	.st6{fill:#EB496F;}
	.st7{fill:#FFFFFF;}
	.st8{fill:#006891;}
	.st9{fill:#0088BB;}
	.st10{font-family:'Montserrat-ExtraBold';}
	.st11{font-size:11.0227px;}
	.st12{fill:#EFB3A6;}
	.st13{fill:none;stroke:#D17A80;stroke-width:1.4399;stroke-miterlimit:10;}
	.st14{fill:#EDB1A4;}
	.st15{fill:#33324F;}
	.st16{fill:#D17A80;}
	.st17{fill:none;stroke:#D17A80;stroke-width:1.4839;stroke-miterlimit:10;}
	.st18{opacity:0.5;}
	.st19{fill:none;stroke:#005467;stroke-width:0.7419;stroke-miterlimit:10;}
	.st20{fill:#E8776E;}
	.st21{fill:none;stroke:#924541;stroke-width:1.3836;stroke-miterlimit:10;}
	.st22{fill:#924541;}
	.st23{fill:none;stroke:#EC9E05;stroke-width:1.1065;stroke-miterlimit:10;}
	.st24{opacity:0.5;fill:#924541;}
	.st25{fill:#972A45;}
	.st26{fill:#DC3C5E;}
	.st27{fill:#F47394;}
	.st28{fill:#CDCDCD;}
	.st29{fill:#3F3E58;}
	.st30{fill:#00B0D1;}
	.st31{fill:none;stroke:#00B0D1;stroke-width:2;stroke-miterlimit:10;}
	.st32{display:none;fill:#0088BB;}
	.st33{font-size:37.0946px;}
	.st34{font-size:22.1274px;}
	.st35{font-size:20.809px;}
	.st36{display:inline;}
	.st37{display:inline;fill:#0088BB;}
	.st38{font-size:19.9072px;}
	.st39{fill:none;}
	.st40{font-family:'TwCenMT-CondensedBold';}
	.st41{font-size:24px;}
	.st42{font-size:36px;}
</style>
<g id="BACKGROUND" class="st0">
	<rect x="-0.2" y="0.4" class="st1" width="499.9" height="499.9"/>
</g>
<g id="OBJECTS">
	<g>
		<g>
			<g>
				<g>
					<path class="st2" d="M248.2,88.2v93.5c0,4-3.2,7.2-7.2,7.2H88.7c-4,0-7.2-3.2-7.2-7.2V88.2c0-4,3.2-7.2,7.2-7.2H241
						C245,81,248.2,84.2,248.2,88.2z"/>
				</g>
				<g>
					<path class="st3" d="M248.2,88.2v7.4H81.5v-7.4c0-4,3.2-7.2,7.2-7.2H241C245,81,248.2,84.2,248.2,88.2z"/>
					<g>
						<path class="st4" d="M114.4,88.3c0,2.3-1.8,4.1-4.1,4.1c-2.3,0-4.1-1.8-4.1-4.1c0-2.3,1.8-4.1,4.1-4.1
							C112.6,84.2,114.4,86.1,114.4,88.3z"/>
						<path class="st5" d="M103.7,88.3c0,2.3-1.8,4.1-4.1,4.1c-2.3,0-4.1-1.8-4.1-4.1c0-2.3,1.8-4.1,4.1-4.1
							C101.9,84.2,103.7,86.1,103.7,88.3z"/>
						<path class="st6" d="M92.7,88.3c0,2.3-1.8,4.1-4.1,4.1c-2.3,0-4.1-1.8-4.1-4.1c0-2.3,1.8-4.1,4.1-4.1
							C90.9,84.2,92.7,86.1,92.7,88.3z"/>
					</g>
				</g>
			</g>
			<g>
				<rect x="142.6" y="117.5" class="st5" width="48.6" height="5.4"/>
				<polyline class="st7" points="234.7,117.5 197.5,117.5 197.5,122.9 234.7,122.9 				"/>
				<polyline class="st8" points="98.6,132.4 181.9,132.4 181.9,127 98.6,127 				"/>
				<polyline class="st8" points="121.3,110.1 204.6,110.1 204.6,104.7 121.3,104.7 				"/>
				<rect x="188.5" y="127" class="st5" width="20.3" height="5.4"/>
				<polyline class="st7" points="234.7,127 215.1,127 215.1,132.4 234.7,132.4 				"/>
				<polyline class="st7" points="234.7,104.7 210.8,104.7 210.8,110.1 234.7,110.1 				"/>
				<polyline class="st8" points="98.6,141.8 142.6,141.8 142.6,136.4 98.6,136.4 				"/>
				<rect x="149.1" y="136.4" class="st5" width="59.6" height="5.4"/>
				<polyline class="st5" points="115.6,151.3 142.6,151.3 142.6,145.9 115.6,145.9 				"/>
				<polyline class="st7" points="234.7,145.9 148.9,145.9 148.9,151.3 234.7,151.3 				"/>
				<polyline class="st8" points="98.6,160.8 136,160.8 136,155.4 98.6,155.4 				"/>
				<rect x="142.6" y="155.4" class="st5" width="66.2" height="5.4"/>
				<polyline class="st7" points="234.7,155.4 215.1,155.4 215.1,160.8 234.7,160.8 				"/>
				<polyline class="st8" points="98.6,170.3 161.3,170.3 161.3,164.9 98.6,164.9 				"/>
				<rect x="167.8" y="164.9" class="st5" width="23.4" height="5.4"/>
				<polyline class="st7" points="234.7,164.9 197.5,164.9 197.5,170.3 234.7,170.3 				"/>
				<rect x="126" y="174.4" class="st5" width="82.7" height="5.4"/>
				<polyline class="st7" points="234.7,174.4 215.1,174.4 215.1,179.7 234.7,179.7 				"/>
			</g>
			<text transform="matrix(1 0 0 1 98.611 112.178)" class="st9 st10 st11">&lt;/&gt;</text>
		</g>
	</g>
	<g>
		<g>
			<g>
				<g>
					<path class="st12" d="M82,272.1c0,0.3,0.1,0.6,0.1,0.9c0,0,0,0,0,0c0,0,0,0,0,0c0.2,4.1-2,7.1-9.1,5.9
						c-0.8-0.2-1.6-0.6-2.3-1.2l0,0c0,0-4.1-4-6.4-8.6c-1.4-2.8-1.1-4.2-1.1-4.3c-0.5-0.7-0.9-1.2-1.3-1.5c-0.6-0.4-1.3-0.6-1.3-0.6
						s-0.2,0.8,0.4,2.2c0.7,1.3-1.5,3.4-3-0.1c-1.3-2.9-0.9-4.7,0.6-5.3c-0.4,0-0.8,0-1.1,0c-5.2,0.3-5-4,0.4-4c0.6,0,1.2,0,1.8,0.1
						c0-0.1-0.1-0.2-0.1-0.3c-0.3-0.1-0.7-0.1-1-0.1c-5.3-0.4-3.9-4.7,1.2-3.8c1.4,0.2,2.9,0.7,4.3,1.2c-0.5-0.4-1.1-0.8-1.7-1.1
						c-3.8-2-2.3-5.6,1.4-3.9c3.8,1.7,9.1,6,11.8,9.5C78.3,260.4,81.5,267.1,82,272.1z"/>
					<path class="st13" d="M65.4,253.4c3.9,3.4,4.8,5.5,4.8,5.5"/>
					<path class="st13" d="M60.1,260.8c0,0,1.4,0.3,2.9,2.1"/>
				</g>
				<g>
					<path class="st13" d="M66.3,266.9c-1.2-2.3-1.4-4.5-2.4-6c-1.4-2-4.7-5.1-4.2-6.2c1-2.3,3.2-0.9,5.6,1.1c2.4,2,6.7,4.7,8.7,3.8
						"/>
				</g>
			</g>
			<g>
				<path class="st14" d="M165.7,262.4L165.7,262.4c-0.7,2.2-1.6,4.5-2.8,7.1c-2.7,6.1-6.7,13.2-12.5,20.9c-2.3,3-4.8,6.1-7.6,9.3
					c-0.1,0.1-0.3,0.3-0.4,0.4c-1.3,1.4-2.7,2.9-4.1,4.4c-1.2,1.3-2.5,2.3-4,3L122,293c0,0,0.8-1.4,2.1-3.9c0.4-0.7,0.8-1.5,1.3-2.4
					c0.6-1.1,1.2-2.2,1.9-3.5c0.2-0.3,0.4-0.7,0.5-1c0.4-0.8,0.9-1.7,1.4-2.5c7.1-13,17.4-31.5,21.5-36.5c0,0,0,0,0,0
					c0.4-0.4,0.9-0.8,1.3-1.1l6.9,2.7l3.7,1.4c0.3,0.5,0.7,1.1,1,1.6C164.4,250.8,165.4,255.8,165.7,262.4z"/>
				<path class="st14" d="M141.3,300.2c-0.9,1.7-2,3.1-3.1,4.2c-1.2,1.3-2.5,2.3-4,3c-20.9,11.1-61.8-28.8-61.8-28.8l6.5-7.5
					l46.3,15.6l2.1,0.7L141.3,300.2z"/>
				<path class="st9" d="M247.9,337.7l-89.8,1.4l-6.3-91.5c-0.6-4.2,0.2-6.6,4.2-8.2c3.3-1.3,8.4-3.3,14.6-4.7
					c1.3-0.3,2.7-0.6,4.1-0.8c3.5-0.6,7.3-1,11.3-1l12.4-0.9c0,0,4.4,0.1,10.3,0.6c2.4,0.2,5,0.5,7.7,0.9c2.7,0.4,5.5,0.9,8.2,1.5
					c5.7,1.3,9.4,6.9,8.5,12.7L247.9,337.7z"/>
				<path class="st8" d="M216.4,233.7c-47,27.6-46.7,7.4-45.7,1.1c1.3-0.3,2.7-0.6,4.1-0.8c3.5-0.6,7.3-1,11.3-1l12.4-0.9
					c0,0,4.4,0.1,10.3,0.6C211.1,233,213.7,233.3,216.4,233.7z"/>
				<path class="st12" d="M208.7,232.8c-40.8,24.9-34,1.2-34,1.2c3.5-0.6,7.3-1,11.3-1l12.4-0.9
					C198.5,232.1,202.8,232.2,208.7,232.8z"/>
				<g>
					<g>
						<path class="st15" d="M156.6,198.3c0,0-7.3,0.1-6.6-6s7.4-6.2,7.4-6.2L156.6,198.3z"/>
						<path class="st15" d="M204.3,180.1c-2-1.9-4.7-2.7-7.3-2.4c-1.2-9.4-15.7-10.1-23.1-9.1c0.1-0.1,0.1-0.3,0.1-0.4
							c0-0.1,0.1-0.2,0.1-0.2c0.6-2.5,0.9-5.9-0.7-8.2c-1.4-2-4.1-2.7-6.4-2.4c-4.9,0.7-6.8,5-7.4,9.5c-2.5-2.8-8-3.1-10.3,0.4
							c-3.2,4.8,0.2,9.2,3,13c-2.7,0.4-7.6,2-6.5,5.4c1.3,3.9,8.1,2.3,10.9,1.6c0.1,0,0.2-0.1,0.3-0.1c0.5,0.2,1.3-0.3,1-1
							c-1.1-2.7,10.5-3.5,12.1-3.6c4-0.3,8.1-0.7,12.1-0.8c3.9-0.1,7.6,0.4,10,3.9c2.4,3.5,4.1,7.6,6.1,11.3c0,0,0,0,0,0.1
							c0.2,2.8,0,5.6-0.8,8.3c-0.2,0.7,0.7,1.1,1.2,0.8c6.4-3.7,9-9.7,8.5-17.2C207,185.7,206.8,182.4,204.3,180.1z"/>
					</g>
					<g>
						<g>
							<path class="st12" d="M200,235.3c-15.5,4.1-24.6,7.7-22.4,1.6l0.5-2.4l0.1-0.6l1.3-6.6l1.3-6.4l0.6-3.1l16.6-1.5l0.9,8.3
								l0.4,3.4L200,235.3z"/>
						</g>
						<path class="st16" d="M199.2,228.1c-2.1,0.8-17.2,6.7-21.2,6.4l0.1-0.6l1.3-6.6l18.6-9.5L199.2,228.1z"/>
					</g>
					<g>
						<g>
							<path class="st14" d="M156,198.7c0,0.6,0.1,1.3,0.1,1.9c0,0.4,0.1,0.8,0.1,1.2c0.3,2.6,0.7,4.9,1.2,7.1
								c0.6,2.6,1.4,4.9,2.3,6.9c0.7,1.6,1.5,3,2.4,4.3c5.7,8,13.9,8.9,19.4,8.4c6.3-0.6,16-3.7,19.1-16.5c1-3.8,1.3-8.5,0.8-14.3
								c0-0.6-0.1-1.2-0.2-1.8c-0.1-0.6-0.1-1.3-0.2-1.9c-1.9-14.1-8.4-24.8-24.9-23.2C159.4,172.3,155.2,184.3,156,198.7z"/>
						</g>
					</g>
					<g>
						<path class="st15" d="M190.6,186.1c0,0-1.9,16.7,3.5,20.3c0,0,5.9,4,7.2-11.8L190.6,186.1z"/>
						<path class="st15" d="M192.5,192.6c0,0-9.7,1.9-10.5-6.2c0,0-5.8,5.8-12.1,0.2c0,0-1.3,5.1-9.2,4c0,0,1.8,6.8-4.7,7.6
							l-1.8-3.6l0.9-8l2.3-5.4l5.6-7l5.9-2.8l7.5-1.3h6.3l7.5,1.7l5.5,5.1l4.5,6l1.3,11.6l-1.2,1L192.5,192.6z"/>
					</g>
					<g>
						<g>
							<path class="st12" d="M194.6,202c0,1.5,0.3,3,0.7,4.3c0.2,0.6,0.3,1.2,0.5,1.8c0,0,0,0,0,0c0,0.1,0.1,0.2,0.1,0.3
								c0,0.1,0.1,0.3,0.2,0.4c0.1,0.2,0.2,0.3,0.4,0.4c1.3,1.6,3.7,2,5.8,1.2c0.7-0.2,1.3-0.6,1.9-1.1c1.9-1.6,3.2-3.6,3.6-5.7
								c0.3-1.8,0.1-3.7-0.8-5.5c-0.3-0.7-0.7-1.3-1.2-1.8c-0.6-0.7-1.3-1.1-2-1.4c-0.4-0.2-0.8-0.3-1.3-0.4
								c-1.7-0.2-3.5,0.3-5.3,1.5c-0.6,0.4-1.1,0.9-1.5,1.5C194.8,198.8,194.5,200.4,194.6,202z"/>
						</g>
						<path class="st17" d="M199.1,207.2c0,0-3.2-10.3,5-7.7"/>
						<line class="st17" x1="198.5" y1="204.1" x2="202" y2="202.5"/>
					</g>
					<g>
						<g>
							<g>
								<path class="st17" d="M174,213.5l-8.2,0.8c6.6-1.1,4.8-11.2,4.8-11.2"/>
								<g>
									<g class="st18">
										<path class="st16" d="M181.6,221.2c0.9,1.3-4.8,3-5.4,1.6C175.5,221.5,180.7,219.8,181.6,221.2z"/>
									</g>
									<path class="st17" d="M184.2,213.1c-1.9,4.5-7.2,6.1-12.4,5.6"/>
								</g>
							</g>
							<g>
								<g>
									<g>
										<g>
											<g>
												<path class="st15" d="M161,203.9c0.2,1.5,1.1,2.7,2.2,2.6s1.8-1.4,1.6-3c-0.2-1.5-1.1-2.7-2.2-2.6
													C161.6,201,160.9,202.3,161,203.9z"/>
											</g>
										</g>
									</g>
									<g>
										<g>
											<g>
												<path class="st15" d="M178.8,202.1c0.2,1.5,1.1,2.7,2.2,2.6s1.8-1.4,1.6-3c-0.2-1.5-1.1-2.7-2.2-2.6
													S178.6,200.5,178.8,202.1z"/>
											</g>
										</g>
									</g>
								</g>
								<g>
									<path class="st15" d="M177.8,198.6c5.5,0.3,8.6-1.2,3.9-1.9C176.9,196.1,174.9,198.4,177.8,198.6z"/>
									<path class="st15" d="M164.4,197.5c-4.9,2.6-8.4,2.5-4.3-0.1C164.2,194.8,167,196.1,164.4,197.5z"/>
								</g>
							</g>
						</g>
						<g>
							<g>
								<path class="st7" d="M185.8,199.2c-0.8-1.3-2-2.4-3.4-3.1c-0.2-0.1-0.3-0.2-0.5-0.2c-0.8-0.3-1.7-0.5-2.6-0.6
									c-0.2,0-0.3,0-0.5,0c-1.1,0-2.1,0.2-3.1,0.6c-1.6,0.7-3,1.8-3.9,3.3c-0.6,1-1,2.1-1.2,3.3h-4.5c-0.1-1.2-0.5-2.3-1.2-3.3
									c-0.9-1.5-2.3-2.6-3.9-3.3c-0.9-0.4-2-0.6-3-0.6c-1.1,0-2.1,0.2-3,0.6c-1.4,0.6-2.6,1.5-3.5,2.7c-0.1,0.2-0.3,0.4-0.4,0.6
									c-0.7,1.1-1.1,2.4-1.2,3.9c0,0.1,0,0.3,0,0.4c0,0.5,0,0.9,0.1,1.4c0.2,0.9,0.4,1.7,0.9,2.5v0c0.1,0.3,0.3,0.5,0.5,0.8
									c1.1,1.6,2.7,2.7,4.7,3.2c0.6,0.1,1.2,0.2,1.8,0.2c0.1,0,0.2,0,0.2,0c2.8,0,5.3-1.4,6.7-3.5c0.5-0.8,1-1.6,1.2-2.5
									c0.1-0.2,0.1-0.5,0.2-0.7c0.1-0.4,0.1-0.7,0.1-1.1h4.4c0,0.4,0,0.8,0.1,1.1c0,0.3,0.1,0.5,0.2,0.7c0.2,0.9,0.6,1.8,1.2,2.5
									c1.5,2.1,3.9,3.5,6.7,3.5c0.1,0,0.3,0,0.4,0c1.1,0,2.2-0.3,3.1-0.8h0c1.1-0.5,2-1.3,2.8-2.2c0.1-0.2,0.3-0.3,0.4-0.5
									c0.7-1,1.1-2.1,1.4-3.3c0.1-0.5,0.1-0.9,0.1-1.4C187,201.9,186.6,200.4,185.8,199.2z M165,205.6c-0.3,0.9-0.8,1.8-1.4,2.5
									c-1.3,1.5-3.3,2.5-5.5,2.5H158c-2.1,0-4-1-5.3-2.5c-0.8-0.9-1.4-2-1.6-3.3c-0.1-0.4-0.1-0.9-0.1-1.4c0-1.6,0.5-3.1,1.4-4.3
									c1.3-1.8,3.4-2.9,5.8-2.9c2.4,0,4.5,1.1,5.8,2.9c0.9,1.2,1.4,2.7,1.4,4.3c0,0.5,0,0.9-0.1,1.4
									C165.2,205.1,165.1,205.3,165,205.6z M184.3,208.1c-1.3,1.5-3.1,2.4-5.1,2.5c-0.1,0-0.2,0-0.3,0c-2.2,0-4.1-1-5.5-2.5
									c-0.6-0.7-1.1-1.6-1.4-2.5c-0.1-0.2-0.1-0.5-0.2-0.7c-0.1-0.4-0.1-0.9-0.1-1.4c0-1.6,0.5-3.1,1.4-4.3
									c1.3-1.8,3.4-2.9,5.8-2.9c2.4,0,4.5,1.1,5.8,2.9c0.9,1.2,1.4,2.7,1.4,4.3c0,0.5,0,0.9-0.1,1.4
									C185.7,206.1,185.1,207.2,184.3,208.1z"/>
							</g>
						</g>
					</g>
				</g>
				<g>
					<path class="st14" d="M239.2,246.2L239.2,246.2c2.7,7.2,5.4,17.6,6,31.3c0.2,3.9,0.2,8.1,0,12.6c-0.2,3.5-0.5,7.1-0.9,11
						l-0.2,0l-19.2-3.4c0,0-0.3-1.6-0.9-4.3c-0.3-1.8-0.8-4-1.3-6.5c-0.3-1.2-0.5-2.6-0.8-4c-3.2-16.3-7.6-40.6-6.5-43.5l10.9-3.6
						c0.6,0.2,1.2,0.4,1.8,0.6C230.9,238.1,234.9,241.3,239.2,246.2z"/>
					<path class="st14" d="M225.8,292.9l-48.9,15l-0.9,9.9c0,0,72.5,10.9,68.5-22.8L225.8,292.9z"/>
					<g>
						<path class="st12" d="M161.6,316.1c0,0-3.7,0.1-7,1.3c-3.4,1.3-3.4-2.3-0.4-3.5c0,0-1.8,0.2-3.9,1.2c-2.1,1-3.2-1.3-2.1-2.6
							c0,0-1.5,0.5-2.2-0.8c-0.7-1.4,0.8-2.8,1.4-3.2c0,0-2.7-2.4,3.1-4.9c5.8-2.6,13.6-4,23.3,0.9c6.7,3.3,7.1,8.6,5.5,11.3
							C176.5,320.8,167.6,321.6,161.6,316.1z"/>
						<path class="st13" d="M154.2,314c5.1-1.9,7.4-1.7,7.4-1.7"/>
						<path class="st13" d="M148.2,312.6c7.8-3.8,11.7-3.5,11.7-3.5"/>
						<path class="st13" d="M147.4,308.6c4.9-3.1,11.5-3.4,11.5-3.4"/>
					</g>
				</g>
				<path class="st9" d="M252.6,290.5l-7.4-0.3l-27.1-0.7l0-1.3l-6.7-50.7l5.5-2.5c0,0,4.1-0.7,9.6,0.9c0.6,0.2,1.2,0.4,1.8,0.6
					C238.6,240.2,252.3,251.8,252.6,290.5z"/>
				<path class="st9" d="M154.8,240.1c0,0-18.4,9.6-29.5,41l22.9,21.4l12.6-15.7L154.8,240.1z"/>
				<line class="st13" x1="219.8" y1="294.7" x2="226.5" y2="292.6"/>
				<line class="st13" x1="119.4" y1="284.8" x2="128.6" y2="287.9"/>
				<g>
					<path class="st19" d="M155.1,294c0,0-1.3-22.1,0-32"/>
					<line class="st19" x1="154.8" y1="269.4" x2="152.2" y2="264.4"/>
				</g>
				<g>
					<polyline class="st19" points="223.4,289.5 219.8,289.4 214,256.9 					"/>
					<line class="st19" x1="214.9" y1="261.8" x2="211.9" y2="258.9"/>
				</g>
			</g>
		</g>
		<g>
			<g>
				<path class="st15" d="M301.5,199c0,0-14.1,4.7-10.1,17.7c0,0-10.8-1.3-13.8,13c0,0-16.5-0.6-15.6,16.3
					c0.9,16.9,19.7,8.2,19.7,8.2s4.8,15.2,17.7,7.7c0,0,8,10.9,16.9,0L301.5,199z"/>
				<path class="st15" d="M341.1,204.3c0,0,11.8,9,3.7,20c0,0,10.7,2.3,8.8,16.8c0,0,15.8,4.8,9.4,20.5c-6.4,15.7-21.3,1.3-21.3,1.3
					s-9.5,12.8-19.2,1.5c0,0-11.1,7.7-16-5.5L341.1,204.3z"/>
				<path class="st15" d="M347.3,206c-0.2,0.9-0.3,1.8-0.6,2.7c-0.5,2.2-1.2,4.6-2.1,7.2c0,0.1,0,0.1-0.1,0.2c-0.3,1-0.7,2-1.1,3
					c-0.5,1.2-1.6,2-2.8,2.1l-32.7,1.2c-2.5,0.1-4-2.8-4.9-5.2c-3.4-9.5-10-31.7,13.2-39.3c4.1-1.3,8.4-1.6,12.6-0.7
					C337.5,178.8,351.1,184.9,347.3,206z"/>
			</g>
			<g>
				<path class="st20" d="M338.9,302.5c-0.3,1.7-0.5,3.4-0.4,4.9c0.1,1.6,0.4,3.1,1,4.5c8.1,20.5,61.3,16.8,61.3,16.8l-0.1-9.3
					l-42.4-16.8l-1.9-0.8L338.9,302.5z"/>
				<g>
					<path class="st20" d="M357.2,307.6l-15.9,7.8c-0.9-1.2-1.7-2.5-2.3-4.1c-0.7-1.8-1.3-3.5-1.9-5.3c-0.1-0.2-0.1-0.4-0.2-0.5
						c-1.2-3.8-2.3-7.3-3.1-10.7c-2.1-8.8-2.9-16.4-2.9-22.6c0-2.6,0.1-4.9,0.2-7.1l0,0c2.6-5.6,5.4-9.4,7.3-11.7
						c0.5-0.4,1-0.7,1.5-1l0.5,0l3.2,0.1l5.2,0.2c0.6,0.8,1.3,1.6,2,2.6c0.3,0.5,0.7,1,1,1.5c1.5,7.8,3.1,24.5,4.2,36.6
						c0.1,0.9,0.1,1.8,0.2,2.7c0,0.4,0.1,0.7,0.1,1.1c0,0.3,0.1,0.7,0.1,1c0.1,1,0.2,1.8,0.2,2.7c0.1,0.9,0.2,1.7,0.2,2.5
						C357.1,306.1,357.2,307.6,357.2,307.6z"/>
					<line class="st21" x1="354.8" y1="301.3" x2="360.1" y2="303.3"/>
				</g>
				<g>
					<g>
						<path class="st20" d="M397.3,318.1c-0.2,0.2-0.4,0.4-0.6,0.6c0,0,0,0,0,0c0,0,0,0,0,0c-2.6,2.8-2.9,6.3,2.9,9.7
							c0.7,0.4,1.5,0.5,2.4,0.5l0,0c0,0,5.3-0.4,9.8-2.2c2.7-1.1,3.3-2.3,3.4-2.4c0.8-0.2,1.4-0.3,1.8-0.3c0.7,0,1.3,0.4,1.3,0.4
							s-0.3,0.7-1.6,1.3c-1.3,0.5-1,3.3,2.2,1.8c2.7-1.3,3.5-2.8,2.8-4.2c0.3,0.2,0.5,0.4,0.8,0.7c3.5,3.3,5.9,0.2,2.1-3.1
							c-0.4-0.4-0.9-0.7-1.3-1.1c0.1,0,0.2-0.1,0.3-0.2c0.3,0.2,0.5,0.3,0.8,0.5c4,2.9,5.6-1,1.4-3.4c-1.1-0.7-2.4-1.3-3.8-1.8
							c0.6,0,1.2,0.1,1.8,0.2c3.9,0.8,5.1-2.6,1.3-3.6s-10.1-1.2-14.2-0.3C406.9,312,400.6,315,397.3,318.1z"/>
						<path class="st21" d="M420.4,314.9c-4.8,0.1-6.7,1-6.7,1"/>
						<path class="st21" d="M419.6,323.4c0,0-1.2-0.7-3.3-0.3"/>
					</g>
					<g>
						<path class="st21" d="M411.5,323.9c2.3-0.9,3.7-2.3,5.3-2.8c2.2-0.6,6.4-0.7,6.8-1.9c0.7-2.2-1.8-2.6-4.7-2.6
							c-2.9,0-7.6-0.7-8.4-2.5"/>
					</g>
				</g>
			</g>
			<path class="st5" d="M352.2,252.7c0,0.3,0,0.6,0,0.8l-3.1,45.9l-2.7,39.4l-83.7-1.4l13.8-83.8c-0.9-5.4,2.6-10.6,7.9-11.8
				c2.5-0.6,5.1-1,7.7-1.4c0.6-0.1,1.2-0.2,1.8-0.3c1.3-0.2,2.5-0.3,3.7-0.4c0.5-0.1,1.1-0.1,1.6-0.2c0.4,0,0.7-0.1,1.1-0.1
				c4.9-0.4,8.5-0.5,8.5-0.5l11.5,0.8c2.3,0,4.5,0.1,6.6,0.4c0.2,0,0.3,0,0.5,0.1c0.1,0,0.2,0,0.3,0c0.3,0,0.6,0.1,0.8,0.1
				c0.8,0.1,1.6,0.2,2.3,0.4c0.7,0.1,1.4,0.3,2.1,0.4l0,0c0.6,0.1,1.1,0.2,1.7,0.4c1.9,0.4,3.7,0.9,5.4,1.5c0.8,0.2,1.3,0.4,1.7,0.5
				c0,0,0,0,0.1,0c0.3,0.1,0.5,0.1,0.6,0.2c0,0,0.1,0,0.1,0c0.1,0,0.2,0.1,0.5,0.2c0,0,0.1,0,0.1,0
				C345,244.8,348.5,246.9,352.2,252.7z"/>
			<g>
				<g>
					<path class="st7" d="M324.9,250.3l2.4-9.9c0.1,0,0.1,0,0.1-0.1c0.1,0,0.2,0,0.3,0c0.3,0,0.6,0.1,0.8,0.1
						c0.8,0.1,1.6,0.2,2.3,0.4c0.7,0.1,1.4,0.3,2.1,0.4l0,0c0.6,0.1,1.1,0.2,1.7,0.4C346,255.8,324.9,250.3,324.9,250.3z"/>
					<g>
						<path class="st7" d="M325.6,249.4c0,0-0.2,0.5-0.7,1.2c-2.8,4.1-13.2,15.8-30.9-10.4c1.3-0.2,2.5-0.3,3.7-0.4
							c0.5-0.1,1.1-0.1,1.6-0.2c0.4,0,0.7-0.1,1.1-0.1l24.6,9.6L325.6,249.4z"/>
					</g>
				</g>
				<path class="st20" d="M297.6,239.8c0.5-0.1,1.1-0.1,1.6-0.2c5.5-0.5,9.6-0.6,9.6-0.6l11.5,0.8c2.3,0,4.5,0.1,6.6,0.4
					c0.5,0.1,1.1,0.2,1.6,0.3C328.5,240.5,334.8,262.2,297.6,239.8z"/>
			</g>
			<g class="st18">
				<path class="st22" d="M321,230.1c-0.8,1.2,4.5,2.8,5.1,1.5C326.7,230.4,321.9,228.8,321,230.1z"/>
			</g>
			<g>
				<path class="st5" d="M363.8,291.5c0,0-3.3,2.1-7.2,4.3c-2.5,1.4-5.3,2.8-7.6,3.7c-2,0.8-3.7,1.1-4.5,0.8l-2.5-50.8l-0.3-6
					c0,0,0,0,0,0c0,0,0,0,0.1,0c0.1,0,0.3,0.1,0.6,0.2c0,0,0.1,0,0.1,0c0.2,0.1,0.3,0.1,0.5,0.2c0,0,0.1,0,0.1,0
					c1.6,0.7,4.2,2.3,7.2,6.1c0.6,0.8,1.2,1.7,1.9,2.7c0.3,0.5,0.6,1,0.9,1.6C357.3,261.2,361.4,272.7,363.8,291.5z"/>
			</g>
			<g>
				<path class="st23" d="M345.4,265.4c0,0,6.4,18.4,3.6,34.1"/>
				<line class="st23" x1="346.8" y1="269.8" x2="348.3" y2="266.5"/>
			</g>
			<g>
				<path class="st20" d="M277.3,245.9c0,0,0.1-0.1,0.1-0.1c0.3-0.3,0.7-0.5,1-0.7c0.6-0.2,1.1-0.4,1.7-0.6l10.2,3.4
					c1,2.7-3.1,25.4-6,40.6c-0.3,1.3-0.5,2.5-0.7,3.7c-0.4,2.1-0.8,4-1.1,5.6c0,0.2-0.1,0.4-0.1,0.5c-0.5,2.5-0.8,4-0.8,4l-17.9,3.2
					l-0.1,0c-0.3-2.3-0.5-4.6-0.6-6.7c-0.1-1.2-0.2-2.3-0.2-3.5c-0.2-4.2-0.2-8.1,0-11.7c0.5-11.5,2.6-20.4,4.8-26.9L277.3,245.9z"
					/>
				<path class="st20" d="M281.2,297.9l43.4,19.7l-0.4,9.3c0,0-68.3,1.5-60.6-29.1L281.2,297.9z"/>
				<g>
					<path class="st20" d="M337.9,327c0,0,3.4,0.5,6.3,2.1c3,1.6,3.4-1.7,0.8-3.2c0,0,1.6,0.4,3.5,1.6c1.9,1.2,3.1-0.8,2.2-2.1
						c0,0,1.3,0.7,2.1-0.5c0.8-1.2-0.4-2.7-0.9-3.1c0,0,2.8-1.9-2.3-4.9c-5.1-3-12.1-5.3-21.7-1.9c-6.6,2.3-7.6,7.1-6.5,9.8
						C323.6,329.6,331.7,331.4,337.9,327z"/>
					<path class="st21" d="M345,325.9c-4.5-2.3-6.7-2.4-6.7-2.4"/>
					<path class="st21" d="M350.7,325.3c-6.7-4.5-10.4-4.7-10.4-4.7"/>
					<path class="st21" d="M351.9,321.7c-4.1-3.4-10.2-4.5-10.2-4.5"/>
				</g>
				<line class="st21" x1="284.4" y1="299.3" x2="279.2" y2="297"/>
			</g>
			<path class="st5" d="M283.7,242.1c0,0-24.3,6.6-30,53.4c0,0,21.8,2.1,32.5-1.4l7.6-47L283.7,242.1z"/>
			<g>
				<polyline class="st23" points="282.9,294.9 286.3,294.1 288.2,266.7 				"/>
				<line class="st23" x1="287.8" y1="272.3" x2="290.7" y2="269.1"/>
			</g>
			<g>
				<g>
					<g>
						<path class="st20" d="M303.9,242.8c14.5,3.8,23,7.2,20.9,1.4l-0.4-2.2l-0.1-0.6l-1.2-6.2l-1.2-5.9l-0.6-2.9l-15.5-1.4
							l-0.8,7.8l-0.3,3.2L303.9,242.8z"/>
					</g>
					<path class="st24" d="M304.6,236.1c1.9,0.8,16.1,6.3,19.8,5.9l-0.1-0.6l-1.2-6.2l-17.4-8.8L304.6,236.1z"/>
				</g>
				<g>
					<g>
						<path class="st20" d="M344.8,208.8c0,0.6-0.1,1.2-0.1,1.8c0,0.4-0.1,0.7-0.1,1.1c-0.3,2.4-0.6,4.6-1.1,6.6
							c-0.6,2.4-1.3,4.6-2.1,6.4c-0.7,1.5-1.4,2.8-2.3,4c-5.3,7.5-13,8.3-18.1,7.8c-5.9-0.5-14.9-3.4-17.8-15.4
							c-0.9-3.6-1.2-8-0.8-13.3c0-0.6,0.1-1.1,0.2-1.7c0.1-0.6,0.1-1.2,0.2-1.8c1.8-13.1,7.8-23.1,23.3-21.6
							C341.6,184.1,345.6,195.3,344.8,208.8z"/>
					</g>
				</g>
				<path class="st21" d="M328.1,222.6l7.6,0.7c-6.2-1-4.5-10.4-4.5-10.4"/>
				<g>
					<g>
						<g>
							<g>
								<path class="st15" d="M340.2,213.6c-0.1,1.4-1.1,2.5-2,2.4c-1-0.1-1.7-1.3-1.5-2.8c0.1-1.4,1.1-2.5,2-2.4
									C339.6,210.9,340.3,212.1,340.2,213.6z"/>
							</g>
						</g>
					</g>
					<g>
						<g>
							<g>
								<path class="st15" d="M323.6,211.9c-0.1,1.4-1.1,2.5-2,2.4c-1-0.1-1.7-1.3-1.5-2.8c0.1-1.4,1.1-2.5,2-2.4
									C323.1,209.2,323.8,210.5,323.6,211.9z"/>
							</g>
						</g>
					</g>
				</g>
				<g>
					<g>
						<g>
							<g>
								<path class="st15" d="M336.8,205.4c-1.2,1.7,4.7,3.7,5.7,2.1C343.4,205.9,338.1,203.7,336.8,205.4z"/>
							</g>
						</g>
					</g>
					<g>
						<g>
							<g>
								<path class="st15" d="M323.6,203.3c0.9,1.9-5.3,2.8-6,1C317,202.5,322.7,201.4,323.6,203.3z"/>
							</g>
						</g>
					</g>
				</g>
				<g>
					<path class="st25" d="M321.1,223.7c0,1,0.3,2,0.9,2.9c0.8,1.2,2,2.1,3.5,2.5c1.4,0.3,2.7,0.2,3.9-0.4c1-0.5,1.9-1.3,2.5-2.3
						L321.1,223.7z"/>
					<path class="st26" d="M322,226.6c0.8,1.2,2,2.1,3.5,2.5c1.4,0.3,2.7,0.2,3.9-0.4c-0.4-1.2-1.7-2.3-3.4-2.7
						C324.5,225.6,323,225.9,322,226.6z"/>
				</g>
				<path class="st15" d="M347.3,206c-0.2,0.9-0.3,1.8-0.6,2.7c-0.5,2.2-1.2,4.6-2.1,7.2c0,0.1,0,0.1-0.1,0.2
					c-2.8-4.5-0.8-15.2-0.8-15.2c-8.6-0.9-14.2-7.6-14.2-7.6c-6.1,2.9-15.3,1.9-15.3,1.9c-1.8,9.2-5.7,13.7-7.7,15.4
					c-0.5,0.4-1.2,0.1-1.2-0.6l0-3l-3.8-2.1l2.1-8.2l2.5-7.8l11-7l17,1l5.8,5.2l6.4,7.7L347.3,206z"/>
				<g>
					<g>
						<path class="st20" d="M307.8,207.7c-0.3-0.5-0.8-1-1.4-1.4c-1.7-1.1-3.4-1.6-4.9-1.4c-0.4,0.1-0.8,0.2-1.2,0.3
							c-0.7,0.3-1.3,0.7-1.8,1.3c-0.4,0.5-0.8,1-1.1,1.6c-0.8,1.7-1.1,3.5-0.7,5.2c0.4,2,1.5,3.9,3.3,5.3c0.5,0.4,1.1,0.8,1.7,1
							c2,0.7,4.2,0.4,5.4-1.1c0.1-0.1,0.3-0.2,0.4-0.4c0.1-0.1,0.1-0.2,0.2-0.3c0-0.1,0-0.2,0.1-0.2c0,0,0,0,0,0
							c0.2-0.5,0.3-1.1,0.5-1.7c0.3-1.3,0.6-2.7,0.6-4C308.9,210.3,308.7,208.9,307.8,207.7z"/>
					</g>
					<path class="st21" d="M304.7,216.7c0,0,2.9-9.6-4.7-7.1"/>
					<line class="st21" x1="305.2" y1="213.7" x2="301.9" y2="212.2"/>
				</g>
				<g>
					<path class="st7" d="M315.1,191.5l-2.2,0.5c-0.2,0.1-0.4,0.3-0.3,0.6l1.9,5.3c0.1,0.2,0.3,0.3,0.5,0.3l0.6-0.1
						c0.2,0,0.4-0.2,0.4-0.4l-0.4-5.8C315.6,191.6,315.3,191.4,315.1,191.5z"/>
					<path class="st7" d="M346.5,198.2l-1.9-1.1c-0.2-0.1-0.5,0-0.6,0.2l-2.3,5.2c-0.1,0.2,0,0.4,0.1,0.5l0.5,0.4
						c0.2,0.1,0.4,0.1,0.6-0.1l3.7-4.4C346.8,198.6,346.7,198.3,346.5,198.2z"/>
				</g>
			</g>
			<path class="st23" d="M349.1,299.4"/>
			<g>
				<g>
					<path class="st23" d="M349.1,299.4"/>
					<path class="st23" d="M345.4,265.4"/>
					<path class="st23" d="M346.8,269.8"/>
				</g>
			</g>
			<g>
				<g>
					<path class="st7" d="M325.7,250.8c-0.1-0.4-0.4-0.5-0.7-0.4c-0.2-0.1-0.5-0.2-0.7,0.1c-2.6,3.1-4.6,6.9-5,10.9
						c-0.3,2.4,0.2,5.8,2.8,6.9c2.4,1,4.1-1.5,4.8-3.5C328.2,260.5,326.4,255.1,325.7,250.8z M321.3,266.2c-1.8-1.9-0.9-5.7-0.2-7.9
						c0.8-2.5,2.1-4.7,3.7-6.7c0.4,2.6,0.8,5.1,1.2,7.7c0.2,1.2,0.3,2.5,0.2,3.7C325.9,264.7,324.3,269.4,321.3,266.2z"/>
					<path class="st7" d="M329.6,264.3c1.3,1.6,3.9,3.2,5.7,1.4c2-1.9,1.2-5.3,0-7.4c-1.9-3.6-5.2-6.4-8.7-8.3
						c-0.3-0.2-0.6,0-0.7,0.2c-0.3,0.1-0.6,0.3-0.5,0.7C326.4,255.1,326.7,260.8,329.6,264.3z M329.6,262.4
						c-0.6-1.1-0.9-2.3-1.2-3.5c-0.6-2.5-1.2-5-1.8-7.6c2.2,1.3,4.2,2.8,5.9,4.8c1.5,1.8,3.7,5,2.7,7.4
						C333.7,267.6,330.4,263.8,329.6,262.4z"/>
				</g>
				<path class="st7" d="M327.9,258c0-0.7-1.1-0.7-1.1,0c0.6,9.3,0.4,18.6-0.5,27.9c-0.1,0.7,1,0.7,1.1,0
					C328.4,276.6,328.5,267.3,327.9,258z"/>
				<path class="st7" d="M326.6,259c-0.2-0.7,0.8-1.1,1-0.4c2.6,8.9,5.9,17.6,9.9,26c0.3,0.6-0.7,1-1,0.4
					C332.5,276.7,329.2,268,326.6,259z"/>
			</g>
		</g>
	</g>
	<g>
		<rect x="245.7" y="319.8" class="st7" width="3.7" height="8"/>
		<rect x="245.7" y="334.1" class="st7" width="3.7" height="8"/>
		
			<rect x="253.4" y="326.8" transform="matrix(6.123234e-17 -1 1 6.123234e-17 -75.552 586.0748)" class="st7" width="3.7" height="8"/>
		
			<rect x="238.3" y="326.8" transform="matrix(6.123234e-17 -1 1 6.123234e-17 -90.6747 570.952)" class="st7" width="3.7" height="8"/>
	</g>
	<g>
		<ellipse class="st27" cx="241.7" cy="359" rx="226.3" ry="24.3"/>
		<g>
			<g>
				<path class="st2" d="M46,353.1v1.8c0,2.3,1.8,4.2,4.1,4.3l93.2,5c2.5,0.1,5-0.3,7.4-1.2l33-12.6c1.7-0.6,2.8-2.3,2.8-4.1v-4.8
					L46,353.1z"/>
				<g>
					<polygon class="st28" points="147.1,356.5 186.5,341.6 74.1,338.2 46,353.1 					"/>
					<g>
						<polygon class="st29" points="167,346.9 161.5,349 160.5,349.3 155,351.4 154.1,351.7 154.1,351.7 146.7,354.5 145.3,351.5 
							145.2,351.2 145.1,351.1 145,350.9 142.7,346.1 156.6,346.6 156.7,346.6 157.7,346.6 157.7,346.6 						"/>
						<g>
							<g>
								<polygon class="st28" points="161.5,349 160.5,349.3 151.1,349 150.1,349 145.2,348.9 145.2,348.5 151,348.7 152,348.7 
																	"/>
							</g>
							<g>
								<polygon class="st28" points="155,351.4 154.1,351.7 154.1,351.7 145.3,351.5 145.2,351.2 145,351.3 144.9,351.1 
									145.1,351.1 145.5,351.1 								"/>
							</g>
							<g>
								<polygon class="st28" points="157.7,346.6 152,348.7 152,348.7 151.1,349 151.1,349 145.5,351.1 145.2,351.2 145,351.3 
									144.9,351.1 144.9,350.9 145,350.9 150.1,349 151,348.7 156.6,346.6 156.7,346.6 								"/>
							</g>
						</g>
					</g>
				</g>
			</g>
			<g>
				<path class="st2" d="M147.1,357.1L46,353.6l-8.6-61.3c-0.9-6.6,3.6-11.7,10.1-11.5l77.7,2.6c6.5,0.2,12.5,5.7,13.4,12.3
					L147.1,357.1z"/>
				<circle class="st5" cx="88.5" cy="326.2" r="7.3"/>
			</g>
		</g>
		<g>
			<g>
				<g>
					<g>
						<polygon class="st30" points="463.4,338 344.5,338 354.4,258.1 473.2,258.1 						"/>
						<polygon class="st9" points="468.3,338 349.5,338 359.3,258.1 478.2,258.1 						"/>
					</g>
					<g>
						<polygon class="st9" points="394.6,356.7 419,350.2 421.6,357.5 						"/>
						<path class="st30" d="M402.1,306.4h19.3l12.5,41.3c2,6.5-2.9,13.1-9.7,13.1h-7L402.1,306.4z"/>
						<path class="st8" d="M405.5,306.4h19.3l13.3,44.2c1.5,5-2.2,10.1-7.5,10.1h-10.1L405.5,306.4z"/>
						<rect x="394.6" y="356.7" class="st8" width="27" height="4"/>
					</g>
				</g>
				
					<ellipse transform="matrix(0.2306 -0.9731 0.9731 0.2306 36.8143 625.3724)" class="st30" cx="413.8" cy="289.4" rx="8.4" ry="8.4"/>
			</g>
			<g>
				<g>
					<g>
						<rect x="305" y="342.9" class="st30" width="11.1" height="4.4"/>
						<rect x="320.2" y="342.9" class="st30" width="11.1" height="4.4"/>
						<rect x="335.3" y="342.9" class="st30" width="11.1" height="4.4"/>
						<rect x="350.5" y="342.9" class="st30" width="11.1" height="4.4"/>
						<rect x="365.6" y="342.9" class="st30" width="11.1" height="4.4"/>
						<rect x="380.7" y="342.9" class="st30" width="11.1" height="4.4"/>
						<rect x="395.9" y="342.9" class="st30" width="11.1" height="4.4"/>
					</g>
					<rect x="302.6" y="345.7" class="st8" width="106.6" height="6.1"/>
				</g>
				<g>
					<path class="st9" d="M296.4,351.7H258c-0.9,0-1.6-1-1.2-1.8c2.6-6.2,13.1-24.5,40.5-0.5C298.2,350.2,297.6,351.7,296.4,351.7z"
						/>
					<line class="st31" x1="297.2" y1="349.4" x2="283.7" y2="340.1"/>
				</g>
			</g>
		</g>
	</g>
	<g>
		<g>
			<g>
				<rect x="274.4" y="70.3" class="st7" width="3.7" height="8"/>
				<rect x="274.4" y="84.6" class="st7" width="3.7" height="8"/>
				
					<rect x="282.1" y="77.3" transform="matrix(6.123234e-17 -1 1 6.123234e-17 202.6473 365.3032)" class="st7" width="3.7" height="8"/>
				
					<rect x="267" y="77.3" transform="matrix(6.123234e-17 -1 1 6.123234e-17 187.5246 350.1804)" class="st7" width="3.7" height="8"/>
			</g>
			<g>
				<rect x="133.4" y="57.2" class="st7" width="3.7" height="8"/>
				<rect x="133.4" y="71.5" class="st7" width="3.7" height="8"/>
				
					<rect x="141.1" y="64.2" transform="matrix(6.123234e-17 -1 1 6.123234e-17 74.7546 211.1409)" class="st7" width="3.7" height="8"/>
				
					<rect x="126" y="64.2" transform="matrix(6.123234e-17 -1 1 6.123234e-17 59.6319 196.0182)" class="st7" width="3.7" height="8"/>
			</g>
			<g>
				<rect x="383.9" y="194.8" class="st7" width="3.7" height="8"/>
				<rect x="383.9" y="209.1" class="st7" width="3.7" height="8"/>
				
					<rect x="391.6" y="201.9" transform="matrix(6.123234e-17 -1 1 6.123234e-17 187.6474 599.3615)" class="st7" width="3.7" height="8"/>
				
					<rect x="376.5" y="201.9" transform="matrix(6.123234e-17 -1 1 6.123234e-17 172.5246 584.2388)" class="st7" width="3.7" height="8"/>
			</g>
			<g>
				<rect x="276.2" y="422" class="st7" width="3.7" height="8"/>
				<rect x="276.2" y="436.3" class="st7" width="3.7" height="8"/>
				
					<rect x="283.9" y="429" transform="matrix(6.123234e-17 -1 1 6.123234e-17 -147.2629 718.7507)" class="st7" width="3.7" height="8"/>
				
					<rect x="268.8" y="429" transform="matrix(6.123234e-17 -1 1 6.123234e-17 -162.3856 703.6279)" class="st7" width="3.7" height="8"/>
			</g>
			<g>
				<rect x="460.7" y="353.3" class="st7" width="3.7" height="8"/>
				<rect x="460.7" y="367.6" class="st7" width="3.7" height="8"/>
				
					<rect x="468.4" y="360.3" transform="matrix(6.123234e-17 -1 1 6.123234e-17 105.9209 834.5894)" class="st7" width="3.7" height="8"/>
				
					<rect x="453.3" y="360.3" transform="matrix(6.123234e-17 -1 1 6.123234e-17 90.7981 819.4666)" class="st7" width="3.7" height="8"/>
			</g>
			<g>
				<rect x="65" y="385.6" class="st7" width="3.7" height="8"/>
				<rect x="65" y="399.9" class="st7" width="3.7" height="8"/>
				
					<rect x="72.7" y="392.6" transform="matrix(6.123234e-17 -1 1 6.123234e-17 -322.0228 471.239)" class="st7" width="3.7" height="8"/>
				
					<rect x="57.6" y="392.6" transform="matrix(6.123234e-17 -1 1 6.123234e-17 -337.1456 456.1162)" class="st7" width="3.7" height="8"/>
			</g>
			<g>
				<rect x="120" y="227" class="st7" width="3.7" height="8"/>
				<rect x="120" y="241.3" class="st7" width="3.7" height="8"/>
				
					<rect x="127.7" y="234" transform="matrix(6.123234e-17 -1 1 6.123234e-17 -108.4758 367.5541)" class="st7" width="3.7" height="8"/>
				
					<rect x="112.6" y="234" transform="matrix(6.123234e-17 -1 1 6.123234e-17 -123.5986 352.4313)" class="st7" width="3.7" height="8"/>
			</g>
		</g>
		<g>
			<g>
				<g>
					<g>
						<g>
							<path class="st2" d="M441,375v57.7c0,2.5-2,4.4-4.4,4.4h-94.1c-2.5,0-4.4-2-4.4-4.4V375c0-2.5,2-4.4,4.4-4.4h94.1
								C439,370.6,441,372.6,441,375z"/>
						</g>
						<g>
							<path class="st8" d="M441,375v4.6H338V375c0-2.5,2-4.4,4.4-4.4h94.1C439,370.6,441,372.6,441,375z"/>
							<g>
								<path class="st4" d="M358.3,375.1c0,1.4-1.1,2.5-2.5,2.5c-1.4,0-2.5-1.1-2.5-2.5c0-1.4,1.1-2.5,2.5-2.5
									C357.2,372.6,358.3,373.7,358.3,375.1z"/>
								<path class="st5" d="M351.7,375.1c0,1.4-1.1,2.5-2.5,2.5s-2.5-1.1-2.5-2.5c0-1.4,1.1-2.5,2.5-2.5S351.7,373.7,351.7,375.1z"
									/>
								<path class="st6" d="M344.9,375.1c0,1.4-1.1,2.5-2.5,2.5s-2.5-1.1-2.5-2.5c0-1.4,1.1-2.5,2.5-2.5S344.9,373.7,344.9,375.1z"
									/>
							</g>
						</g>
					</g>
					<text transform="matrix(1 0 0 1 351.7295 420.0788)" class="st32 st10 st33">C++</text>
				</g>
				<g>
					<g>
						<g>
							<path class="st2" d="M407.6,60.8v44.8c0,1.9-1.5,3.4-3.4,3.4h-73c-1.9,0-3.4-1.5-3.4-3.4V60.8c0-1.9,1.5-3.4,3.4-3.4h73
								C406,57.4,407.6,58.9,407.6,60.8z"/>
						</g>
						<g>
							<path class="st8" d="M407.6,60.8v3.6h-79.9v-3.6c0-1.9,1.5-3.4,3.4-3.4h73C406,57.4,407.6,58.9,407.6,60.8z"/>
							<g>
								<path class="st4" d="M343.5,60.9c0,1.1-0.9,2-2,2c-1.1,0-2-0.9-2-2c0-1.1,0.9-2,2-2C342.6,58.9,343.5,59.8,343.5,60.9z"/>
								<path class="st5" d="M338.3,60.9c0,1.1-0.9,2-2,2c-1.1,0-2-0.9-2-2c0-1.1,0.9-2,2-2C337.5,58.9,338.3,59.8,338.3,60.9z"/>
								<path class="st6" d="M333.1,60.9c0,1.1-0.9,2-2,2c-1.1,0-2-0.9-2-2c0-1.1,0.9-2,2-2C332.2,58.9,333.1,59.8,333.1,60.9z"/>
							</g>
						</g>
					</g>
					<text transform="matrix(1 0 0 1 334.3174 92.9567)" class="st5 st10 st34">HTML</text>
				</g>
			</g>
			<g>
				<g>
					<path class="st5" d="M99.7,231.7H53.4c-3.7,0-6.7-3-6.7-6.7v-46.3c0-3.7,3-6.7,6.7-6.7h46.3c3.7,0,6.7,3,6.7,6.7V225
						C106.4,228.7,103.4,231.7,99.7,231.7z"/>
					<g>
						<path class="st7" d="M69.1,199.6l-8.3,2.8l8.3,2.8v4.7l-14-5.1V200l14-5.1V199.6z"/>
						<path class="st7" d="M78.5,189H84l-9,25.8h-5.5L78.5,189z"/>
						<path class="st7" d="M98.1,200v4.9l-14,5.1v-4.7l8.3-2.8l-8.3-2.8v-4.7L98.1,200z"/>
					</g>
				</g>
				<g>
					<g>
						<path class="st9" d="M452.5,200.7h-38.3c-3,0-5.5-2.5-5.5-5.5V157c0-3,2.5-5.5,5.5-5.5h38.3c3,0,5.5,2.5,5.5,5.5v38.3
							C458,198.3,455.5,200.7,452.5,200.7z"/>
					</g>
					<g>
						<path class="st7" d="M438.2,190.9c0,2.6-2.1,4.8-4.7,4.8c-2.6,0-4.8-2.1-4.8-4.7c0-2.6,2.1-4.8,4.7-4.8
							C436,186.2,438.1,188.3,438.2,190.9z"/>
						<path class="st7" d="M447.1,168.4c-8.1-6.1-19.4-6-27.4,0.2c-1.3,1-3,1.2-4.1,0.2l0,0c-1-1-0.7-3,0.9-4.2
							c9.8-7.7,23.7-7.8,33.7-0.3c1.6,1.2,2,3.2,1,4.2l0,0C450.1,169.5,448.3,169.3,447.1,168.4z"/>
						<path class="st7" d="M442.5,176c-5.5-3.7-12.8-3.6-18.2,0.2c-1.3,0.9-3,1.1-4.1,0.1l0,0c-1-1-0.6-3.1,1.1-4.3
							c7.2-5,16.8-5.1,24-0.2c1.8,1.2,2.3,3.3,1.2,4.3l0,0C445.6,177,443.8,176.8,442.5,176z"/>
						<path class="st7" d="M437.6,183.7c-2.7-1.3-5.9-1.3-8.5,0.1c-1.3,0.7-3.1,0.9-4.2-0.1l0,0c-1.1-0.9-0.5-3.3,1.8-4.5
							c4.1-2.1,9-2.2,13.2-0.1c2.3,1.1,2.9,3.5,1.9,4.5l0,0C440.7,184.5,438.9,184.3,437.6,183.7z"/>
					</g>
				</g>
				<g>
					<g>
						<g>
							<path class="st9" d="M177.6,443.9h-41.4c-3.3,0-6-2.7-6-6v-41.4c0-3.3,2.7-6,6-6h41.4c3.3,0,6,2.7,6,6v41.4
								C183.6,441.2,180.9,443.9,177.6,443.9z"/>
						</g>
					</g>
					<text transform="matrix(1 0 0 1 134.9351 425.2751)" class="st7 st10 st35">CSS</text>
				</g>
			</g>
			<g>
				<g class="st0">
					<g class="st36">
						<g>
							<path class="st7" d="M281.1,169.4h79.6c4.6,0,8.4-3.8,8.4-8.4v-18.2c0-4.6-3.8-8.4-8.4-8.4h-79.6c-4.6,0-8.4,3.8-8.4,8.4V161
								C272.7,165.6,276.5,169.4,281.1,169.4z"/>
							<polygon class="st7" points="272.7,161.1 272.7,183 283.7,168.5 							"/>
						</g>
					</g>
					<text transform="matrix(1 0 0 1 282.0586 157.5163)" class="st37 st10 st38">phyton</text>
				</g>
				<g>
					<g>
						<g>
							<path class="st7" d="M287.7,394h-79.6c-4.6,0-8.4-3.8-8.4-8.4v-18.2c0-4.6,3.8-8.4,8.4-8.4h79.6c4.6,0,8.4,3.8,8.4,8.4v18.2
								C296.1,390.2,292.4,394,287.7,394z"/>
							<polygon class="st7" points="296.1,385.7 296.1,407.6 285.1,393.1 							"/>
						</g>
					</g>
					<text transform="matrix(1 0 0 1 209.062 382.109)" class="st5 st10 st38">&lt;code&gt;</text>
				</g>
			</g>
		</g>
	</g>
	<rect x="265" y="142.9" class="st39" width="118.7" height="30.2"/>
	<text transform="matrix(1 0 0 1 265.0166 158.5458)" class="st3 st40 st41">Javascript</text>
	<rect x="362.7" y="396.6" class="st39" width="78.9" height="33.6"/>
	<text transform="matrix(1 0 0 1 362.6633 420.0974)" class="st9 st40 st42">PHP</text>
</g>
</svg>
