<?xml version="1.0" standalone="no"?><svg xmlns="http://www.w3.org/2000/svg" viewBox="0 0 1440 320"><path fill="#0908a9" fill-opacity="1" d="M0,96L40,133.3C80,171,160,245,240,250.7C320,256,400,192,480,160C560,128,640,128,720,117.3C800,107,880,85,960,106.7C1040,128,1120,192,1200,224C1280,256,1360,256,1400,256L1440,256L1440,320L1400,320C1360,320,1280,320,1200,320C1120,320,1040,320,960,320C880,320,800,320,720,320C640,320,560,320,480,320C400,320,320,320,240,320C160,320,80,320,40,320L0,320Z"></path></svg>