<?xml version="1.0" encoding="utf-8"?>
<!-- Generator: Adobe Illustrator 23.0.5, SVG Export Plug-In . SVG Version: 6.00 Build 0)  -->
<svg version="1.1" xmlns="http://www.w3.org/2000/svg" xmlns:xlink="http://www.w3.org/1999/xlink" x="0px" y="0px"
	 viewBox="0 0 1600 600" style="enable-background:new 0 0 1600 600;" xml:space="preserve">
<style type="text/css">
	.st0{display:none;}
	.st1{display:inline;}
	.st2{clip-path:url(#SVGID_2_);}
	.st3{fill-rule:evenodd;clip-rule:evenodd;fill:#2196F3;}
	.st4{display:none;fill:#0908A9;}
	.st5{fill:#0908A9;}
</style>
<g id="Capa_1" class="st0">
	<g class="st1">
		<defs>
			<rect id="SVGID_1_" y="201" width="1600" height="600"/>
		</defs>
		<clipPath id="SVGID_2_">
			<use xlink:href="#SVGID_1_"  style="overflow:visible;"/>
		</clipPath>
		<g class="st2">
			<path class="st3" d="M1600,278c-311,0-409.9,121.3-811,121C389,399,289,278,0,278v-77h1600C1600,201,1600,249,1600,278z"/>
		</g>
	</g>
</g>
<g id="Capa_2">
	<path class="st4" d="M0,195.6h1600v87.2c0,0-224.7-2.4-396.8,73.1s-570.4,83.3-890.6-28.5c0,0-200.1-54.3-312.6-49.5V195.6z"/>
	<path class="st5" d="M0,281.3h1600v-85.3c0,0-224.7,2.3-396.8-71.5s-570.4-81.5-890.6,27.9c0,0-200.1,53.1-312.6,48.4V281.3z"/>
</g>
</svg>
